<?xml version="1.0" encoding="UTF-8" standalone="no"?>
<!-- Created with Inkscape (http://www.inkscape.org/) -->

<svg
   xmlns:dc="http://purl.org/dc/elements/1.1/"
   xmlns:cc="http://creativecommons.org/ns#"
   xmlns:rdf="http://www.w3.org/1999/02/22-rdf-syntax-ns#"
   xmlns:svg="http://www.w3.org/2000/svg"
   xmlns="http://www.w3.org/2000/svg"
   xmlns:xlink="http://www.w3.org/1999/xlink"
   xmlns:sodipodi="http://sodipodi.sourceforge.net/DTD/sodipodi-0.dtd"
   xmlns:inkscape="http://www.inkscape.org/namespaces/inkscape"
   width="1000"
   height="1000"
   id="svg2"
   version="1.1"
   inkscape:version="0.48.4 r9939"
   sodipodi:docname="drawing.svg">
  <defs
     id="defs4">
    <linearGradient
       id="linearGradient3856">
      <stop
         style="stop-color:#ffff2f;stop-opacity:1;"
         offset="0"
         id="stop3858" />
      <stop
         style="stop-color:#ffc48c;stop-opacity:1;"
         offset="1"
         id="stop3860" />
    </linearGradient>
    <mask
       maskUnits="userSpaceOnUse"
       id="mask3806">
      <path
         sodipodi:type="arc"
         style="fill:#ffffff;fill-opacity:1;stroke:none"
         id="path3808"
         sodipodi:cx="500"
         sodipodi:cy="600"
         sodipodi:rx="200"
         sodipodi:ry="200"
         d="m 700,600 a 200,200 0 1 1 -400,0 200,200 0 1 1 400,0 z"
         transform="matrix(1.1571429,0,0,1.1571429,-78.57145,-41.92357)" />
    </mask>
    <mask
       maskUnits="userSpaceOnUse"
       id="mask3842">
      <path
         transform="matrix(1.1571429,0,0,1.1571429,-78.571429,-41.923546)"
         d="m 700,600 a 200,200 0 1 1 -400,0 200,200 0 1 1 400,0 z"
         sodipodi:ry="200"
         sodipodi:rx="200"
         sodipodi:cy="600"
         sodipodi:cx="500"
         id="path3844"
         style="fill:#ffffff;fill-opacity:1;stroke:none"
         sodipodi:type="arc" />
    </mask>
    <linearGradient
       inkscape:collect="always"
       xlink:href="#linearGradient3856"
       id="linearGradient3862"
       x1="200"
       y1="500"
       x2="800"
       y2="500"
       gradientUnits="userSpaceOnUse" />
  </defs>
  <sodipodi:namedview
     id="base"
     pagecolor="#333322"
     bordercolor="#666666"
     borderopacity="1.0"
     inkscape:pageopacity="1"
     inkscape:pageshadow="2"
     inkscape:zoom="0.35"
     inkscape:cx="-70.714286"
     inkscape:cy="520"
     inkscape:document-units="px"
     inkscape:current-layer="layer1"
     showgrid="false"
     inkscape:snap-bbox="true"
     inkscape:bbox-paths="true"
     inkscape:bbox-nodes="true"
     inkscape:snap-bbox-midpoints="true"
     inkscape:snap-bbox-edge-midpoints="true"
     inkscape:object-paths="true"
     inkscape:snap-intersection-paths="true"
     inkscape:object-nodes="true"
     inkscape:snap-smooth-nodes="true"
     inkscape:snap-object-midpoints="true"
     inkscape:snap-center="true"
     inkscape:window-width="1280"
     inkscape:window-height="657"
     inkscape:window-x="-8"
     inkscape:window-y="-8"
     inkscape:window-maximized="1">
    <inkscape:grid
       type="xygrid"
       id="grid2985"
       empspacing="50"
       visible="true"
       enabled="true"
       snapvisiblegridlinesonly="true" />
  </sodipodi:namedview>
  <metadata
     id="metadata7">
    <rdf:RDF>
      <cc:Work
         rdf:about="">
        <dc:format>image/svg+xml</dc:format>
        <dc:type
           rdf:resource="http://purl.org/dc/dcmitype/StillImage" />
        <dc:title></dc:title>
      </cc:Work>
    </rdf:RDF>
  </metadata>
  <g
     inkscape:label="Layer 1"
     inkscape:groupmode="layer"
     id="layer1"
     transform="translate(0,-52.362168)">
    <path
       id="path3846"
       d="m 320,172.36217 c -55.22847,0 -100,44.77153 -100,100 l 0,400 c 0,165.68542 134.31458,300 300,300 165.68542,0 300,-134.31458 300,-300 l 0,-400 c 0,-55.22847 -44.77153,-100 -100,-100 -55.22847,0 -100,44.77153 -100,100 l 0,117.09375 c -31.2795,-11.05643 -64.93433,-17.09375 -100,-17.09375 -35.06567,0 -68.7205,6.03732 -100,17.09375 l 0,-117.09375 c 0,-55.22847 -44.77153,-100 -100,-100 z"
       style="fill:#ffffff;fill-opacity:1;stroke:none"
       inkscape:connector-curvature="0" />
    <path
       style="opacity:1;fill:url(#linearGradient3862);fill-opacity:1;stroke:none;stroke-width:25;stroke-miterlimit:4;stroke-opacity:1;stroke-dasharray:none;stroke-dashoffset:0;stroke-linejoin:miter;stroke-linecap:square"
       d="M 300 100 C 244.77153 100 200 144.77153 200 200 L 200 600 C 200 765.68542 334.31458 900 500 900 C 665.68542 900 800 765.68542 800 600 L 800 200 C 800 144.77153 755.22847 100 700 100 C 644.77153 100 600 144.77153 600 200 L 600 317.09375 C 568.7205 306.03732 535.06567 300 500 300 C 464.93433 300 431.2795 306.03732 400 317.09375 L 400 200 C 400 144.77153 355.22847 100 300 100 z "
       id="path2987"
       transform="translate(0,52.362168)" />
    <path
       sodipodi:type="arc"
       style="fill:#ffffff;fill-opacity:1;stroke:none"
       id="path3766"
       sodipodi:cx="500"
       sodipodi:cy="600"
       sodipodi:rx="200"
       sodipodi:ry="200"
       d="m 700,600 a 200,200 0 1 1 -400,0 200,200 0 1 1 400,0 z"
       transform="matrix(1.1571429,0,0,1.1571429,-78.571429,-41.923546)" />
    <path
       sodipodi:type="arc"
       style="fill:#ffffff;fill-opacity:1;stroke:none"
       id="path3768"
       sodipodi:cx="300"
       sodipodi:cy="200"
       sodipodi:rx="50"
       sodipodi:ry="50"
       d="m 350,200 a 50,50 0 1 1 -100,0 50,50 0 1 1 100,0 z"
       transform="matrix(1.2857143,0,0,1.2857143,-85.714286,-4.7806891)" />
    <path
       transform="matrix(1.2857143,0,0,1.2857143,314.28571,-4.780692)"
       d="m 350,200 a 50,50 0 1 1 -100,0 50,50 0 1 1 100,0 z"
       sodipodi:ry="50"
       sodipodi:rx="50"
       sodipodi:cy="200"
       sodipodi:cx="300"
       id="path3776"
       style="fill:#ffffff;fill-opacity:1;stroke:none"
       sodipodi:type="arc" />
    <path
       style="fill:#000000"
       d="m 18.50005,1285.985 c 0,-1.8333 0.591152,-3.2894 1.355053,-3.3376 1.084043,-0.068 1.084043,-0.195 0,-0.6324 -1.014759,-0.4095 -1.355053,-5.5287 -1.355053,-20.3848 0,-19.6598 0.02192,-19.8439 2.439096,-20.4804 1.421917,-0.3745 4.209338,0.2312 6.683966,1.4525 4.43607,2.1893 6.608012,1.9455 5.619438,-0.6307 -0.335759,-0.8749 0.09153,-1.5163 1.01014,-1.5163 0.875622,0 1.592041,0.4878 1.592041,1.084 0,0.5962 1.478767,1.084 3.28615,1.084 1.961822,0 3.544845,0.6742 3.92807,1.6728 0.86214,2.2467 -0.03297,2.9497 -3.933191,3.0887 -3.541927,0.1262 -4.339655,1.4046 -1.545558,2.4768 0.954508,0.3663 2.12468,0.036 2.600381,-0.7335 0.564069,-0.9127 2.019648,-1.1685 4.184732,-0.7355 1.825901,0.3652 3.611434,0.1921 3.967851,-0.3846 0.356415,-0.5766 -0.356399,-1.0485 -1.584033,-1.0485 -2.731628,0 -2.84119,-0.9247 -0.334987,-2.8272 2.753864,-2.0904 4.607181,-1.8253 4.607181,0.6591 0,1.3359 0.728228,2.1745 1.897074,2.1847 1.621237,0.014 1.660642,0.1694 0.271011,1.0675 -1.46283,0.9453 -0.786437,1.5505 1.355053,1.2123 1.198235,-0.1891 0.989117,1.803 -0.271011,2.5818 -0.596223,0.3685 -1.084042,1.4774 -1.084042,2.4644 0,1.6563 0.135505,1.6589 1.761569,0.032 0.968863,-0.9689 1.761569,-3.0336 1.761569,-4.5883 0,-1.5547 0.412699,-3.0818 0.91711,-3.3934 0.50441,-0.3118 1.234084,-2.9563 1.621497,-5.8768 0.393082,-2.9632 1.365157,-5.5634 2.199512,-5.8837 0.822319,-0.3152 1.495126,-1.8324 1.495126,-3.3713 0,-1.5388 0.660483,-4.1153 1.46774,-5.7253 0.807257,-1.6099 2.042455,-5.3663 2.744882,-8.3475 0.702428,-2.9811 1.927142,-6.8836 2.721587,-8.6723 2.023291,-4.5554 6.074301,-17.4349 6.074301,-19.3122 0,-0.8586 0.731729,-2.1684 1.626064,-2.9107 0.894335,-0.7422 1.626064,-2.2816 1.626064,-3.4209 0,-1.1392 1.303803,-4.6162 2.897339,-7.7265 1.593537,-3.1104 3.258335,-7.6065 3.699552,-9.9914 0.441216,-2.3849 1.170572,-6.2875 1.620789,-8.6723 0.450218,-2.3849 2.200153,-6.5854 3.888747,-9.3343 1.688592,-2.7489 3.070169,-5.682 3.070169,-6.518 0,-0.8359 1.219548,-2.4357 2.710106,-3.555 1.490559,-1.1194 2.710106,-2.6255 2.710106,-3.3469 0,-1.6162 16.935349,-17.8098 24.367549,-23.3003 2.99541,-2.2129 6.11512,-4.8294 6.9327,-5.8145 0.81757,-0.9852 1.98716,-1.7912 2.59908,-1.7912 0.61193,0 3.67184,-2.0732 6.79981,-4.6071 3.12798,-2.534 7.32382,-5.5763 9.3241,-6.7607 10.3592,-6.1338 20.64101,-11.731 26.94378,-14.6675 3.87545,-1.8056 9.24147,-4.4593 11.92447,-5.897 2.68301,-1.4378 9.36782,-4.8513 14.85515,-7.5857 5.48732,-2.7343 10.25279,-5.4178 10.58994,-5.9633 0.73306,-1.1862 12.45437,-7.6367 13.87661,-7.6367 0.54737,0 2.40167,-1.0015 4.12068,-2.2256 1.71902,-1.224 9.79087,-5.6186 17.93748,-9.7658 8.1466,-4.1472 16.8944,-9.1215 19.43955,-11.054 2.54514,-1.9325 8.05662,-6.0928 12.24771,-9.2451 4.19111,-3.1523 9.79689,-8.1524 12.45729,-11.1114 2.66041,-2.959 5.31263,-5.3801 5.89383,-5.3801 0.58119,0 1.64393,-0.7075 2.36163,-1.57228 0.7177,-0.86477 3.8263,-3.01212 6.908,-4.77187 3.0817,-1.75976 7.32646,-4.83281 9.43279,-6.82901 3.46686,-3.28557 11.88892,-15.01036 11.88892,-16.55117 0,-0.34641 3.29277,-5.28017 7.31728,-10.9639 4.02451,-5.68373 8.38116,-11.90319 9.68143,-13.82102 1.30029,-1.91784 3.35681,-4.70653 4.57004,-6.19708 1.21323,-1.49056 3.80802,-4.66934 5.76617,-7.06396 1.95816,-2.39461 7.59721,-8.44453 12.53122,-13.44426 8.86567,-8.98377 8.94569,-9.11393 6.82059,-11.09376 -1.18268,-1.10184 -2.40434,-2.00334 -2.71479,-2.00334 -1.25616,0 -12.48079,-12.21492 -13.14356,-14.30313 -0.39201,-1.23512 -2.77281,-4.9858 -5.29066,-8.33484 -2.51785,-3.34904 -4.88819,-6.94284 -5.26742,-7.98624 -0.37922,-1.04339 -1.67115,-1.89707 -2.87094,-1.89707 -1.48515,0 -2.40784,-0.95155 -2.89066,-2.98112 -0.39005,-1.63961 -2.10671,-4.3805 -3.8148,-6.09086 -1.70808,-1.71036 -3.10561,-3.77983 -3.10561,-4.59882 0,-0.81899 -1.3415,-2.68652 -2.98111,-4.15009 -1.63962,-1.46355 -3.7892,-4.27228 -4.77684,-6.2416 -5.72592,-11.41728 -8.50269,-18.17647 -8.50269,-20.69719 0,-1.56899 -0.60977,-3.33833 -1.35505,-3.93187 -8.25111,-6.57117 -8.77088,-7.29606 -9.0799,-12.66326 -0.27661,-4.80433 -1.9709,-9.84778 -6.54461,-19.48158 -0.86883,-1.83004 -1.44668,-3.78132 -1.28411,-4.33617 0.16256,-0.55485 -0.23973,-1.98446 -0.89397,-3.17691 -0.65425,-1.19244 -1.53201,-4.70459 -1.95059,-7.80477 -0.41858,-3.10018 -1.4841,-6.23676 -2.36782,-6.97018 -1.20012,-0.996 -1.43334,-2.59446 -0.92149,-6.31597 0.51797,-3.76615 0.0276,-6.99717 -2.00869,-13.2352 -3.23208,-9.90122 -4.54773,-17.75069 -3.12279,-18.63135 1.21698,-0.75213 0.43478,-11.62288 -0.94309,-13.10669 -0.52177,-0.5619 -0.65415,-5.684 -0.29418,-11.38245 0.79102,-12.52227 -2.05124,-39.35025 -4.57736,-43.20561 -1.1943,-1.82272 -1.9032,-7.08147 -2.48816,-18.45741 -0.44991,-8.74964 -1.33907,-16.88409 -1.9759,-18.07654 -0.63684,-1.19244 -1.94559,-8.64978 -2.90835,-16.57185 -1.02693,-8.45004 -2.53033,-15.88083 -3.63715,-17.97718 -1.03768,-1.96537 -2.80483,-5.30774 -3.92702,-7.42749 -2.82885,-5.34353 -1.69904,-10.69438 3.19922,-15.1517 3.41735,-3.10972 3.72661,-3.87817 3.37212,-8.37913 -0.21466,-2.72547 -0.8981,-6.17496 -1.51877,-7.66552 -0.62067,-1.49056 -1.91819,-4.59901 -2.88339,-6.90765 -0.9652,-2.30865 -1.7549,-5.13305 -1.7549,-6.27643 0,-1.14339 -0.97564,-3.9913 -2.16809,-6.32869 -1.19244,-2.33739 -2.16847,-5.85464 -2.16894,-7.81612 -4.7e-4,-1.96147 -1.47387,-6.68002 -3.27422,-10.48565 -2.45267,-5.18451 -3.10703,-7.80601 -2.6099,-10.45592 0.45795,-2.44107 0.0787,-4.42908 -1.22428,-6.41768 -1.61232,-2.46071 -1.79509,-4.57303 -1.25261,-14.47706 0.48079,-8.77796 0.24914,-12.64974 -0.95323,-15.93214 -0.87361,-2.38489 -1.81695,-8.64931 -2.09632,-13.92092 -0.27935,-5.2716 -0.87495,-10.14979 -1.32352,-10.84042 -1.61486,-2.48623 -1.88592,-30.75015 -0.31308,-32.64532 0.66543,-0.80179 0.93666,-7.3632 0.69326,-16.7709 -0.39249,-15.16999 -0.34368,-15.56514 2.65753,-21.51508 2.09258,-4.14857 2.76081,-6.61537 2.1176,-7.81722 -0.6499,-1.21435 -0.0276,-3.31767 2.01735,-6.81923 2.55869,-4.38109 2.91628,-6.05306 2.65406,-12.40965 -0.25107,-6.0864 0.0925,-7.88683 2.00279,-10.49755 1.84269,-2.51823 2.05001,-3.49807 1.03214,-4.87819 -0.70053,-0.94986 -1.56034,-2.58069 -1.91068,-3.62408 -0.35034,-1.0434 -1.00872,-1.89708 -1.46308,-1.89708 -1.2219,0 -2.99755,-5.28109 -3.65629,-10.87447 -0.56379,-4.78707 -0.42796,-5.06128 5.33049,-10.76101 3.24996,-3.21682 5.90902,-6.57531 5.90902,-7.46331 0,-0.88801 0.85368,-2.53854 1.89707,-3.66787 5.1841,-5.61106 8.67488,-8.7264 11.38245,-10.15826 1.63961,-0.86707 2.98112,-1.98727 2.98112,-2.48931 0,-1.50371 11.96594,-19.01647 13.63342,-19.9532 0.84874,-0.47679 1.54317,-1.48935 1.54317,-2.25014 0,-2.31967 4.45306,-5.60705 13.55053,-10.00338 4.76979,-2.30499 9.30978,-5.05208 10.08886,-6.10464 0.88208,-1.1917 2.84144,-1.91377 5.19311,-1.91377 2.15996,0 5.12113,-0.99408 6.91762,-2.32228 2.89662,-2.14157 3.92658,-2.26026 13.23563,-1.52528 5.55201,0.43834 11.80194,0.76221 13.88872,0.71972 2.08678,-0.0425 8.36263,0.37441 13.94633,0.92648 7.94929,0.78597 10.65435,0.69127 12.46649,-0.43645 1.27287,-0.79213 4.97143,-1.73062 8.21901,-2.08553 3.62005,-0.39562 6.2624,-1.28444 6.82913,-2.29715 0.61454,-1.0981 2.55973,-1.65185 5.80259,-1.65185 4.63176,0 9.86944,-1.89544 13.44283,-4.86476 2.83585,-2.35645 10.50658,-2.90351 46.44473,-3.31238 19.28426,-0.21939 35.6262,-0.84303 36.31543,-1.38586 1.95452,-1.53936 17.92773,-1.25158 24.71653,0.4453 3.36529,0.84117 7.58152,1.5294 9.3694,1.5294 1.88947,0 3.51196,0.68091 3.87466,1.62606 0.743,1.93625 4.08071,2.13993 5.86287,0.35777 0.96836,-0.96836 2.23733,-0.96613 5.36601,0.01 2.25375,0.70276 5.80508,1.2511 7.89186,1.21854 5.13347,-0.0801 17.02681,1.64957 21.6737,3.15205 2.08285,0.67344 5.59074,1.22443 7.79533,1.22443 2.20458,0 4.27274,0.42782 4.5959,0.95071 0.32318,0.5229 2.8704,1.52554 5.66051,2.2281 2.7901,0.70255 6.27891,2.226 7.75292,3.38545 1.47399,1.15945 3.35639,2.10808 4.1831,2.10808 0.82671,0 2.05301,1.20691 2.72512,2.68201 0.7485,1.64279 3.04974,3.38004 5.93899,4.48345 2.59434,0.99079 4.71699,2.48818 4.71699,3.32753 0,2.57143 4.69391,6.76063 8.40729,7.50331 2.29947,0.4599 3.51717,0.28121 3.51717,-0.51611 0,-0.67075 -0.73173,-1.21955 -1.62606,-1.21955 -0.89434,0 -1.62606,-0.49711 -1.62606,-1.10469 0,-1.37559 4.92062,-0.28242 8.83238,1.96221 2.63859,1.51405 3.24651,1.46074 7.53449,-0.66079 3.91453,-1.93676 4.93437,-2.07741 6.34421,-0.87498 0.92393,0.78801 2.53356,1.7355 3.57695,2.10552 1.04339,0.37002 1.89707,1.41981 1.89707,2.33286 0,0.91305 0.73173,1.66008 1.62607,1.66008 0.89433,0 1.62606,-0.48781 1.62606,-1.08404 0,-0.59622 0.48782,-1.08404 1.08404,-1.08404 0.59623,0 1.08404,1.46346 1.08404,3.25213 0,3.19332 1.38949,4.30489 2.71011,2.16808 0.36849,-0.59622 1.37292,-1.08404 2.23207,-1.08404 1.09583,0 1.56208,1.27515 1.56208,4.27219 0,2.34971 0.51151,4.58833 1.13668,4.9747 0.77322,0.47788 0.71899,1.20581 -0.16959,2.27648 -1.06164,1.27919 -0.61972,2.28233 2.3596,5.35621 2.94138,3.03475 4.23421,3.65741 6.5416,3.15063 2.06033,-0.45252 4.06583,0.18289 7.07312,2.24101 2.30858,1.57995 4.07547,3.31301 3.92641,3.85123 -0.41453,1.49684 1.63419,1.16401 2.31722,-0.37644 0.40319,-0.90936 0.56894,-0.82022 0.50391,0.27101 -0.21913,3.67728 0.29935,4.33617 3.41211,4.33617 1.78867,0 3.25213,0.48782 3.25213,1.08404 0,0.59623 0.36587,0.97557 0.81303,0.84298 0.44717,-0.1326 2.15454,0.65524 3.79415,1.75074 3.10616,2.07535 3.96347,5.48513 1.62607,6.46739 -0.97038,0.40779 -0.81652,0.91033 0.54202,1.77027 1.04339,0.66045 1.89707,1.63926 1.89707,2.17515 0,0.53588 1.21602,2.28643 2.70227,3.89012 1.48624,1.60368 3.96914,5.65332 5.51753,8.9992 1.5484,3.34588 4.481,9.41928 6.51689,13.49646 2.03589,4.07717 3.47512,7.77955 3.19828,8.22747 -0.27685,0.44794 0.50757,2.70058 1.74313,5.00586 2.75821,5.14623 3.3617,9.16092 3.21091,21.36027 -0.0669,5.41224 0.32917,9.48537 0.92237,9.48537 1.70261,0 0.49901,29.86212 -1.57293,39.02553 -1.0111,4.47168 -2.29306,8.99524 -2.84882,10.05236 -0.63993,1.21724 -0.60386,2.68179 0.0983,3.9939 1.68621,3.15033 1.32931,5.46619 -0.84242,5.46619 -3.10611,0 -4.52927,2.0893 -3.41659,5.01584 1.00529,2.64414 -0.33596,3.66054 -1.76954,1.34096 -0.5032,-0.81421 -1.42044,-0.35742 -2.70682,1.34797 -1.77558,2.35392 -2.01102,2.40933 -2.69245,0.63355 -0.57493,-1.49826 -1.46331,-1.78856 -3.8614,-1.26185 -2.4043,0.52807 -3.11469,0.29358 -3.11469,-1.02809 0,-1.06641 -0.94507,-1.71221 -2.50569,-1.71221 -1.37814,0 -3.48887,-0.91596 -4.69052,-2.03546 -3.11974,-2.90648 -6.89634,-3.95905 -6.89634,-1.92207 0,0.88483 0.60978,1.85483 1.35505,2.15555 0.74528,0.30073 0.0542,0.58529 -1.53573,0.63236 -1.58992,0.047 -3.05338,0.56735 -3.25212,1.15617 -0.21387,0.63366 -1.6286,0.41245 -3.46638,-0.54202 -1.70777,-0.88693 -3.8566,-1.61261 -4.77519,-1.61261 -1.45902,0 -1.44336,0.25062 0.12391,1.98243 2.26489,2.50268 2.26938,3.43778 0.0165,3.43778 -0.97766,0 -2.4018,0.85369 -3.16475,1.89708 -0.99451,1.36008 -2.89136,1.89707 -6.70119,1.89707 -6.22529,0 -9.02613,-2.13039 -8.80568,-6.69783 0.12353,-2.55919 0.22437,-2.66005 0.61765,-0.61778 0.39225,2.037 0.95066,2.3256 3.3755,1.74457 1.59803,-0.3829 3.00168,-0.7644 3.11923,-0.84776 0.11756,-0.0834 -1.04769,-1.76338 -2.58944,-3.73337 -2.16466,-2.76592 -3.03203,-3.25224 -3.80788,-2.13503 -0.70908,1.02108 -0.8229,0.79233 -0.38682,-0.77744 0.45079,-1.62272 -0.66476,-3.60156 -4.125,-7.31729 -2.6086,-2.80119 -5.17183,-5.09616 -5.69608,-5.09992 -0.52425,-0.003 -1.79394,-1.48423 -2.82151,-3.2899 -1.86226,-3.27236 -1.85873,-3.2867 1.08404,-4.41617 l 2.95237,-1.13314 -2.98112,-1.57382 c -2.92958,-1.54663 -3.19106,-2.03567 -3.41263,-6.38278 -0.0608,-1.19245 -0.70273,-2.05198 -1.42655,-1.91008 -0.76053,0.1491 -1.05476,-0.42288 -0.69705,-1.35506 0.34045,-0.88718 0.079,-1.61305 -0.58103,-1.61305 -0.65999,0 -1.19999,-1.14395 -1.19999,-2.54209 0,-1.39816 -0.97564,-3.42503 -2.16809,-4.50419 -1.19245,-1.07915 -2.16808,-3.07724 -2.16808,-4.4402 0,-1.36297 -0.4373,-2.74839 -0.97177,-3.07871 -1.54417,-0.95434 -5.18283,-8.47608 -6.08302,-12.57464 -0.45261,-2.06068 -1.56825,-5.45602 -2.47922,-7.54519 -5.89609,-13.52185 -9.1305,-19.56701 -11.00623,-20.57087 -1.38501,-0.74124 -1.90114,-1.78009 -1.45804,-2.93476 0.45082,-1.17482 0.26337,-1.52624 -0.54694,-1.02544 -0.68557,0.4237 -1.8455,-0.21916 -2.61307,-1.44823 -0.75914,-1.21558 -1.78328,-2.21015 -2.27587,-2.21015 -0.49259,0 -2.48152,-1.20963 -4.41985,-2.68807 -2.98001,-2.27296 -4.4333,-2.62321 -9.41082,-2.268 -3.23761,0.23104 -6.13148,0.0992 -6.43081,-0.29304 -1.5118,-1.98088 -12.29616,-4.97639 -19.24399,-5.3453 -4.32262,-0.22952 -7.85931,-0.75045 -7.85931,-1.15762 0,-1.51712 -10.90377,-0.73735 -11.88558,0.84997 -0.78363,1.2669 -1.49787,1.32285 -3.75541,0.29425 -1.53325,-0.69859 -2.78773,-2.01236 -2.78773,-2.91948 0,-2.38561 -3.57918,-2.02636 -5.16864,0.51878 -1.66942,2.67316 -3.71188,2.84192 -3.28022,0.27101 0.21266,-1.2665 -0.49221,-2.01222 -2.12056,-2.24348 -1.3415,-0.19052 -2.43909,0.17535 -2.43909,0.81303 0,0.63769 -1.58542,1.19796 -3.52314,1.24503 -1.93773,0.047 -2.91337,0.33163 -2.16809,0.63235 1.90759,0.76974 1.68883,2.53419 -0.3142,2.53419 -2.48651,0 -9.41486,3.7756 -11.83124,6.44742 -1.30196,1.43961 -3.18153,2.24368 -4.87819,2.08688 -3.25796,-0.30109 -7.52945,0.93469 -9.80642,2.83709 -3.0012,2.50749 -12.38693,4.80493 -18.25037,4.46734 -4.58636,-0.26408 -6.29444,0.12175 -8.24984,1.86347 -2.90338,2.58611 -15.80625,6.37371 -17.39159,5.10525 -0.60278,-0.4823 -2.31551,-0.35644 -3.80607,0.27968 -3.36397,1.43566 -16.55057,1.70758 -17.5036,0.36094 -0.38553,-0.54475 -2.27047,0.12715 -4.18877,1.4931 -2.27767,1.62185 -5.2315,2.54447 -8.51341,2.65913 -2.76409,0.0966 -6.00124,0.55125 -7.19369,1.01041 -1.19245,0.45915 -3.28863,1.28295 -4.65819,1.83067 -1.36955,0.54772 -3.49454,0.99585 -4.72217,0.99585 -1.22765,0 -3.19137,1.21955 -4.36385,2.71011 -2.09214,2.65972 -7.39462,3.82573 -7.39462,1.62606 0,-2.08813 -1.81579,-1.05678 -3.33996,1.89708 -0.84603,1.63961 -2.39192,3.92678 -3.43531,5.0826 -1.04339,1.15581 -1.89707,2.68149 -1.89707,3.3904 0,2.16945 -3.4123,4.2645 -6.94578,4.2645 -2.65147,0 -3.42507,0.5101 -3.69903,2.43909 -0.24386,1.717 -1.12642,2.47922 -2.98112,2.5746 -4.99235,0.25676 -5.3484,0.41472 -6.41491,2.84562 -1.14659,2.61347 -2.71791,3.09566 -4.44847,1.3651 -1.27392,-1.27391 -5.86388,1.55326 -5.86388,3.61184 0,0.73198 -1.5065,2.22077 -3.34776,3.30844 -2.408,1.42243 -3.19418,2.56487 -2.80065,4.06972 0.57323,2.19206 -3.395,7.42867 -5.62936,7.42867 -1.09937,0 -1.6671,2.3252 -1.52197,6.23325 0.0276,0.74528 -0.37713,1.35505 -0.89957,1.35505 -0.52245,0 -0.78812,2.56105 -0.59038,5.69122 0.29001,4.59117 0.70644,5.62965 2.15438,5.37269 1.88168,-0.33393 2.22009,0.65922 1.16315,3.41355 -0.34746,0.90546 -1.21857,1.4211 -1.93579,1.14587 -0.71724,-0.27523 -1.39755,0.36534 -1.51181,1.4235 -0.74278,6.87865 -1.67607,9.85757 -2.93678,9.37379 -1.56426,-0.60027 -3.09857,2.47582 -2.06723,4.14457 0.37404,0.60521 0.88724,2.87833 1.14046,5.05138 0.25322,2.17303 0.95158,4.94533 1.55192,6.16065 1.789,3.62156 -0.4973,8.08517 -4.15162,8.10533 -2.24679,0.0124 -2.61032,0.26815 -1.43663,1.01068 1.04572,0.66155 1.49293,2.55972 1.33698,5.67463 -0.16346,3.26481 0.0762,4.20622 0.79246,3.11238 0.85095,-1.29962 1.4048,-1.11397 3.23413,1.08404 1.21404,1.45871 2.22357,3.01807 2.24341,3.46524 0.068,1.53296 -4.19181,0.81404 -5.13209,-0.86614 -0.77109,-1.37787 -1.18539,-1.13993 -2.30897,1.32606 -0.94843,2.08155 -1.00934,3.12518 -0.1982,3.39555 1.88599,0.62867 1.34904,2.07836 -0.99702,2.69188 -2.78946,0.72946 -2.78946,2.52266 0,3.25213 1.26176,0.32996 2.16809,1.47864 2.16809,2.74787 0,1.1995 0.27196,2.88965 0.60436,3.75586 0.3324,0.86623 -0.19026,2.36958 -1.16147,3.34079 -1.41492,1.41492 -1.4607,1.76584 -0.23036,1.76584 1.95296,0 5.72344,4.09772 4.70635,5.11482 -0.42095,0.42093 -1.73866,0.15751 -2.92824,-0.5854 -1.18958,-0.7429 -2.63085,-1.06151 -3.20283,-0.70802 -1.41445,0.87419 -1.32112,3.7669 0.12153,3.7669 0.63881,0 1.88169,0.72022 2.76195,1.60047 1.26885,1.26885 1.34192,2.08356 0.35266,3.93201 -1.4429,2.69611 0.33238,4.57655 3.58472,3.79707 1.04422,-0.25026 1.62925,-0.0193 1.30008,0.51336 -0.32918,0.53261 -0.16301,2.56036 0.36923,4.50608 1.06156,3.88076 0.60264,6.60838 -0.95036,5.64857 -1.46167,-0.90335 -1.20722,3.20199 0.29133,4.70054 1.69245,1.69245 0.79678,2.46032 -2.01281,1.7256 -1.69102,-0.44221 -2.4157,-1.73012 -2.87315,-5.10621 -0.33645,-2.48315 -0.1512,-4.67744 0.41168,-4.87617 1.11307,-0.39301 1.43794,-3.43281 0.36687,-3.43281 -0.3611,0 -2.08879,1.20515 -3.83931,2.67812 l -3.18277,2.67812 3.02628,0.76327 3.02628,0.76327 -3.07284,0.82557 c -3.47248,0.93291 -6.12285,0.25056 -6.17994,-1.59109 -0.0669,-2.15836 -3.13511,4.07623 -3.17529,6.45222 -0.0399,2.35773 3.44935,6.34628 4.57078,5.22487 0.35151,-0.35151 2.6075,-0.8287 5.0133,-1.06043 4.85136,-0.46729 6.93584,1.25556 4.06179,3.35712 -1.65757,1.21203 -1.6648,1.39432 -0.0795,2.00266 0.95924,0.3681 2.86906,0.3869 4.24405,0.0418 1.82458,-0.45794 3.22586,0.15537 5.18683,2.27019 2.40902,2.59802 2.92968,2.74708 5.03526,1.44145 1.97378,-1.2239 2.49671,-1.21787 3.27816,0.0377 0.5766,0.92648 1.48458,1.15104 2.39041,0.5912 1.83509,-1.13414 8.86985,-0.58706 9.7008,0.75442 0.34135,0.55107 2.78045,1.39216 5.42021,1.86909 3.06897,0.55445 4.68587,1.37562 4.48424,2.27738 -0.19566,0.875 0.31865,1.16699 1.35505,0.76928 0.91872,-0.35255 1.67039,-0.16848 1.67039,0.40903 0,0.57751 1.20235,1.05002 2.67186,1.05002 1.49715,0 3.76107,1.21857 5.14921,2.77162 7.16421,8.01524 7.7464,8.52225 8.20526,7.1457 0.335,-1.00502 1.19514,-0.72025 3.0294,1.00295 2.12198,1.99348 2.84607,2.17035 4.2194,1.03057 1.22131,-1.01359 1.65785,-1.03864 1.65785,-0.0952 0,0.70443 0.48696,0.97981 1.08215,0.61196 0.59517,-0.36784 2.16717,0.0912 3.49332,1.02007 1.32617,0.92887 3.15883,1.68886 4.07259,1.68886 2.30291,0 6.94892,12.15704 5.89517,15.42569 -0.43636,1.35356 -0.89057,3.68056 -1.00937,5.17112 -0.11879,1.49056 -0.7755,5.34875 -1.45935,8.57377 -1.88354,8.88272 -1.84998,18.56408 0.0774,22.32144 0.91751,1.78867 2.01918,6.66687 2.44816,10.84043 0.42897,4.17356 1.40111,8.32003 2.16032,9.21436 1.52679,1.79855 1.86503,12.17398 0.36669,11.24795 -0.51717,-0.31963 -0.71719,0.64929 -0.44449,2.15315 0.27862,1.53655 -0.0614,2.92194 -0.7761,3.16265 -0.95622,0.32204 -0.93792,0.83318 0.0737,2.05944 0.74011,0.89709 0.98435,1.99238 0.54276,2.43398 -1.4294,1.4294 -3.23069,11.41778 -2.85602,15.83697 0.22305,2.6309 -0.0994,4.29948 -0.83082,4.29948 -0.74702,0 -0.97751,1.34242 -0.61452,3.57918 0.31944,1.96856 -0.079,6.12286 -0.88545,9.23179 -1.43154,5.51876 -1.38721,5.80707 1.87273,12.17647 1.83645,3.58814 3.58359,6.27928 3.88255,5.98033 0.29897,-0.29896 1.76357,0.41609 3.2547,1.58901 1.49112,1.17292 3.91056,2.13258 5.37653,2.13258 1.75372,0 2.85933,0.74158 3.23237,2.16809 0.31794,1.2158 1.47865,2.16808 2.64264,2.16808 1.14162,0 2.35646,0.73173 2.69965,1.62606 0.3432,0.89434 1.54743,1.62607 2.67609,1.62607 1.13785,0 2.0521,0.7546 2.0521,1.69377 0,1.44059 1.0938,1.58449 7.31729,0.9627 4.02451,-0.4021 7.51261,-0.91244 7.75134,-1.13412 0.23873,-0.22167 1.55694,0.80857 2.92935,2.28942 1.37242,1.48087 3.00642,2.69248 3.63111,2.69248 1.8984,0 1.27356,-2.33633 -1.19815,-4.48002 -1.91859,-1.66399 -2.01505,-2.02423 -0.54202,-2.02423 0.98557,0 1.79193,-0.73173 1.79193,-1.62607 0,-2.40316 2.99519,-1.97527 3.79415,0.54203 0.81616,2.57146 2.5987,2.75885 5.48403,0.57649 2.97963,-2.25366 3.73032,-2.04245 3.73032,1.0496 0,1.68629 0.6143,2.71011 1.62607,2.71011 0.90336,0 1.62606,-0.9636 1.62606,-2.16809 0,-2.7011 3.84624,-2.93265 7.39737,-0.44533 1.35276,0.94752 3.15493,1.45591 4.00481,1.12979 2.42344,-0.92997 8.42923,1.46455 10.87929,4.33758 1.39429,1.635 3.80205,2.81278 6.44093,3.15065 2.31785,0.29675 5.01408,1.26337 5.99162,2.14803 0.97754,0.88466 2.14022,1.24562 2.58371,0.80211 0.44351,-0.4435 1.28184,0.0433 1.86297,1.08168 0.58114,1.03843 1.97921,1.88805 3.10685,1.88805 2.28747,0 4.20995,2.14817 1.97117,2.20255 -2.19816,0.0534 2.47339,3.21766 4.75039,3.21766 1.23819,0 1.96089,-0.79906 1.96089,-2.16809 0,-2.60989 -0.19063,-2.59492 5.01682,-0.39395 2.30864,0.97578 5.18633,1.82946 6.39484,1.89708 2.56434,0.14347 8.10111,4.22385 8.10111,5.97018 0,1.93958 2.03951,1.37548 3.5037,-0.96905 1.85056,-2.9632 3.43611,-2.72893 7.33672,1.08404 1.82979,1.78867 3.98206,3.25213 4.78283,3.25213 0.80078,0 2.05473,0.72147 2.78656,1.60329 1.02465,1.23462 1.83413,1.3338 3.52038,0.43135 1.50209,-0.80389 2.91316,-0.82761 4.49334,-0.0756 1.26698,0.60302 3.15728,1.36924 4.20067,1.70271 1.04339,0.33346 1.89707,1.4799 1.89707,2.54764 0,1.06774 0.97564,2.55064 2.16809,3.29534 1.19245,0.74469 2.16808,2.08157 2.16808,2.97086 0,1.96171 -1.77429,2.14504 -2.53418,0.26183 -0.32665,-0.8095 -0.58124,-0.59128 -0.63236,0.54202 -0.0471,1.04339 0.41431,1.89707 1.02529,1.89707 0.61098,0 1.57455,1.21955 2.14125,2.71011 0.56671,1.49056 1.53028,2.7101 2.14126,2.7101 0.61098,0 1.11087,0.47252 1.11087,1.05003 0,0.5775 -0.68238,0.78816 -1.51641,0.46811 -0.83403,-0.32004 -1.83845,-0.0608 -2.23207,0.57605 -0.42481,0.68736 0.30158,1.19039 1.78743,1.23777 1.84687,0.0589 1.29526,0.54391 -2.10411,1.85008 -2.53395,0.97365 -4.60718,2.43406 -4.60718,3.24535 0,1.03258 -0.73173,1.24675 -2.43909,0.71392 -1.34151,-0.41865 -2.68301,-1.07257 -2.98112,-1.45315 -1.1038,-1.40909 -6.47531,-4.43598 -7.87218,-4.43598 -0.79431,0 -3.34957,-1.95128 -5.67835,-4.33617 -3.94941,-4.04456 -9.21437,-5.90278 -9.21437,-3.25213 0,0.59622 -2.47486,1.08404 -5.49969,1.08404 -4.65207,0 -5.44429,0.29238 -5.14019,1.89707 0.4205,2.21888 8.0291,3.31542 9.91551,1.42901 1.75064,-1.75064 3.73298,-1.40151 6.2321,1.09761 2.1741,2.1741 2.18389,2.31177 0.27101,3.81066 -1.37684,1.07885 -4.30838,1.47897 -9.57288,1.30658 -4.17357,-0.13668 -8.32003,0.21781 -9.21437,0.78773 -2.94507,1.87679 -9.05042,3.65818 -10.16877,2.967 -1.92228,-1.18803 -21.54532,-0.18835 -28.85676,1.47009 -7.80165,1.76964 -16.24498,4.61537 -17.8325,6.01023 -0.56641,0.49768 -1.79318,0.90487 -2.72616,0.90487 -0.93297,0 -3.39646,0.9106 -5.47441,2.02355 -2.07795,1.11297 -5.48547,2.3804 -7.57225,2.81653 -2.08678,0.43612 -4.76978,1.40146 -5.96223,2.14519 -2.78969,1.73992 -8.13032,2.74938 -8.13032,1.53675 0,-1.24086 -7.95389,-1.20389 -9.26856,0.0431 -1.52961,1.45083 -9.54704,2.29213 -11.33179,1.18909 -2.07505,-1.28245 -4.33263,0.6999 -4.33263,3.80439 0,3.35632 4.92728,6.62876 7.1737,4.76439 1.32763,-1.10184 1.71779,-0.91644 2.2352,1.06216 0.50411,1.92766 1.28933,2.33402 4.0103,2.07535 2.07742,-0.1975 3.29526,0.15218 3.15497,0.90586 -0.12569,0.67514 0.36213,1.20048 1.08404,1.16742 0.72189,-0.0331 2.89795,0.32922 4.83567,0.80506 3.62204,0.88945 4.85576,2.76224 1.81965,2.76224 -2.30227,0 -5.14972,2.90851 -3.71533,3.795 0.60613,0.37462 2.05109,0.3799 3.21103,0.0117 1.15992,-0.36815 3.2288,0.064 4.59748,0.96034 1.98346,1.29896 3.47261,1.40847 7.33751,0.5396 4.15843,-0.93487 5.04616,-0.82051 6.23325,0.80294 0.76133,1.04118 1.41989,2.65349 1.46347,3.58293 0.1657,3.53445 3.86318,8.19267 6.77636,8.53715 2.43739,0.28823 2.90079,0.87224 2.90079,3.65588 0,2.82185 -0.24101,3.11284 -1.62607,1.96334 -2.41759,-2.00642 -2.12106,0.1889 1.15991,8.58729 4.23328,10.83606 5.88814,14.17761 7.02127,14.17761 1.36889,0 1.32946,-2.94107 -0.0508,-3.79415 -1.82588,-1.12846 -1.32164,-5.20134 0.55481,-4.48127 1.46242,0.56118 1.46242,0.28773 0,-2.54029 -1.83418,-3.5469 -2.08964,-7.39059 -0.64305,-9.67544 0.77544,-1.22479 1.7687,-0.85593 5.10858,1.89707 2.2803,1.87961 4.76657,3.41748 5.52506,3.41748 0.75849,0 1.37907,1.21955 1.37907,2.71011 0,1.59023 -0.62229,2.7101 -1.50597,2.7101 -0.82828,0 -2.59035,0.87809 -3.91573,1.9513 l -2.40975,1.9513 2.01865,5.90801 c 2.36493,6.92145 3.22168,8.00483 7.10019,8.97827 1.96639,0.49353 3.43749,0.18032 4.59644,-0.97863 1.54952,-1.54952 1.85934,-1.54961 3.40797,-9.8e-4 0.93691,0.93693 2.03451,1.71097 2.43909,1.7201 0.40458,0.009 1.44794,0.46716 2.31856,1.01786 1.35583,0.85759 1.29548,1.31893 -0.42063,3.21519 -1.63457,1.80619 -1.75375,2.51496 -0.6471,3.8484 0.74608,0.89895 1.85457,1.32663 2.46334,0.95039 0.70786,-0.43748 0.90468,0.64146 0.54598,2.99305 -0.59994,3.93324 1.89301,9.63936 4.21134,9.63936 0.71842,0 1.62764,-1.46346 2.02049,-3.25213 0.89369,-4.06891 4.47259,-4.4601 5.9222,-0.64732 0.54469,1.43263 1.53277,2.94004 2.19575,3.34979 1.35512,0.83751 9.04403,-2.45712 8.39325,-3.59642 -0.23,-0.40266 -1.09091,-2.30087 -1.91312,-4.21825 -1.02654,-2.39384 -2.46678,-3.69959 -4.59661,-4.16738 -4.26774,-0.93735 -4.74738,-3.08049 -1.94519,-8.69135 2.09777,-4.20035 2.65462,-4.64948 4.52415,-3.64894 1.17256,0.62753 2.42466,2.60464 2.78245,4.39357 0.39416,1.9708 1.17931,3.04968 1.99233,2.73769 0.73799,-0.28319 1.90911,0.5451 2.60246,1.84065 1.38,2.57855 7.13049,6.37605 10.10696,6.67442 1.03374,0.10364 2.88378,-0.88058 4.11122,-2.18713 1.93285,-2.05742 2.05583,-2.76156 0.91831,-5.25813 -1.18142,-2.59294 -1.00391,-3.20562 1.76651,-6.09732 2.67189,-2.78886 3.61813,-3.12868 7.14255,-2.5651 3.37127,0.53909 4.30629,0.25948 5.49446,-1.64308 0.7875,-1.26099 2.2949,-2.29272 3.34976,-2.29272 1.05487,0 2.7533,-0.97564 3.77431,-2.16808 1.021,-1.19245 2.60163,-2.1836 3.51252,-2.20256 2.45345,-0.0511 4.9881,-2.34217 5.71643,-5.16716 0.47206,-1.83095 -0.19658,-3.34973 -2.52198,-5.7286 -1.74042,-1.7804 -3.16438,-3.51846 -3.16438,-3.86238 0,-0.34391 1.72752,-0.3012 3.83894,0.0949 3.72984,0.69973 3.8248,0.63383 3.34127,-2.31845 -0.27372,-1.67125 -0.53778,-3.40451 -0.58681,-3.85167 -0.13349,-1.21755 -3.1049,-0.98011 -3.52551,0.28171 -0.2007,0.60211 -0.98251,0.1058 -1.73737,-1.10291 -1.21594,-1.94705 -1.0621,-2.31563 1.34921,-3.23242 3.75079,-1.42604 5.37727,-0.54849 7.09437,3.82774 0.80904,2.06196 2.16387,3.74902 3.01071,3.74902 0.90833,0 1.2893,0.65255 0.92905,1.59134 -0.33586,0.87524 -0.1407,1.8818 0.4337,2.2368 0.57439,0.35499 1.31857,-0.0692 1.65371,-0.94251 0.6616,-1.72409 4.79554,-3.25641 4.79554,-1.77754 0,0.49782 -0.73173,1.63685 -1.62606,2.53119 -2.28411,2.28412 -2.02193,4.74492 0.6584,6.17939 1.6521,0.88418 2.61234,0.89473 3.46894,0.0382 1.62202,-1.62202 2.57126,-1.48602 3.32427,0.47629 0.42055,1.09597 -0.24812,1.9974 -1.96617,2.65062 -1.88342,0.71606 -2.44852,1.58241 -2.04319,3.13236 0.70492,2.69562 5.18123,2.45106 7.26368,-0.39685 1.67448,-2.29001 5.01269,-1.53821 5.01269,1.12889 0,1.08224 0.71684,1.59257 1.89707,1.35055 1.34761,-0.27635 1.8067,-1.24131 1.58503,-3.33161 -0.28685,-2.70507 -0.002,-2.94259 3.52314,-2.94259 2.10935,0 3.83518,-0.48782 3.83518,-1.08405 0,-0.59622 0.71642,-1.08404 1.59205,-1.08404 1.03952,0 1.3518,-0.62603 0.89982,-1.80389 -0.46545,-1.21292 -0.27673,-1.54711 0.57604,-1.02007 0.74351,0.45951 1.26826,0.13948 1.26826,-0.77348 0,-0.85651 0.74975,-2.17953 1.66609,-2.94003 0.91635,-0.76051 1.54813,-2.16174 1.40395,-3.11386 -0.14418,-0.95211 0.33743,-2.8187 1.07026,-4.14797 0.73281,-1.32926 1.02379,-3.6464 0.64661,-5.1492 -0.37718,-1.5028 -0.24264,-2.73235 0.29897,-2.73235 1.63504,0 3.58646,2.47731 3.58646,4.55298 0,1.0732 0.73173,1.95127 1.62607,1.95127 1.49693,0 2.12538,-1.85909 1.7206,-5.08988 -0.0893,-0.71265 0.82855,-3.14452 2.03965,-5.40416 1.21109,-2.25963 2.20198,-5.19793 2.20198,-6.52955 0,-1.62893 0.49617,-2.23072 1.51641,-1.83922 0.83403,0.32004 1.81015,0.10667 2.16917,-0.47428 0.35901,-0.5809 1.74985,-0.81574 3.09077,-0.52188 1.73985,0.38129 2.02395,0.24012 0.99206,-0.49294 -1.17504,-0.83477 -1.12426,-1.15066 0.27101,-1.68607 0.94433,-0.36238 1.71696,-1.39661 1.71696,-2.29829 0,-0.9017 1.23242,-1.94875 2.73871,-2.32681 1.50628,-0.37805 3.23081,-1.60689 3.83228,-2.73076 0.61725,-1.15336 2.25741,-2.04339 3.76555,-2.04339 1.46959,0 2.6868,-0.60977 2.70494,-1.35505 0.0205,-0.84274 0.41156,-0.7078 1.03433,0.35694 3.15367,5.39169 -2.59814,18.56687 -12.64581,28.9667 -3.76762,3.89966 -6.85021,7.50587 -6.85021,8.0138 0,0.50792 -1.82932,2.98583 -4.06516,5.50646 -2.23584,2.52062 -4.60458,5.55611 -5.26386,6.74553 -0.65929,1.18941 -1.87884,2.2127 -2.71011,2.27397 -3.65188,0.26921 -4.22151,0.5235 -4.22151,1.88453 0,0.79359 -1.21955,2.09557 -2.71011,2.89329 -3.10232,1.66031 -3.55069,3.25213 -0.91602,3.25213 1.62344,0 1.63492,0.18043 0.12064,1.89707 -0.92038,1.04339 -2.01039,3.48249 -2.42223,5.42022 -0.41184,1.93772 -1.15013,3.52313 -1.64066,3.52313 -0.49053,0 -1.42233,1.52169 -2.07067,3.38151 -0.9181,2.63368 -1.66078,3.25548 -3.35817,2.8116 -1.43883,-0.37624 -2.17937,-0.0389 -2.17937,0.99282 0,3.75784 -10.215,13.53987 -16.63457,15.92949 -1.1,0.40947 -2.25959,1.73719 -2.57688,2.95051 -0.31729,1.21332 -1.97835,2.93075 -3.69123,3.81652 -1.7129,0.88577 -3.11435,2.12969 -3.11435,2.76428 0,0.63458 -4.14646,5.22624 -9.21436,10.20368 -5.0679,4.97742 -9.21436,9.52903 -9.21436,10.11468 0,0.58564 -1.3415,1.36771 -2.98112,1.73794 -3.47081,0.78372 -12.19548,8.59643 -12.19548,10.92073 0,0.87279 -0.75116,1.5869 -1.66925,1.5869 -2.64983,0 -10.14298,4.18588 -11.56273,6.45926 -0.9846,1.57661 -2.08482,1.92512 -4.60047,1.45726 -2.72292,-0.50641 -3.06726,-0.36007 -1.95132,0.82928 1.92438,2.051 1.72283,4.63581 -0.30092,3.85921 -0.93951,-0.36052 -2.4508,0.29283 -3.49305,1.5101 -1.01039,1.18004 -2.9482,2.14553 -4.30626,2.14553 -1.79397,0 -2.46919,0.62917 -2.46919,2.30082 0,1.91413 -0.27113,2.07581 -1.61324,0.96195 -1.30382,-1.08208 -1.73803,-1.01363 -2.26394,0.35686 -0.35789,0.93265 -2.32674,2.24886 -4.37522,2.92492 -2.44505,0.80694 -3.62242,1.82481 -3.42728,2.96304 0.17153,1.00057 -1.0559,2.45133 -2.90232,3.43041 -4.71102,2.49804 -7.42724,5.16641 -6.60814,6.49174 0.39725,0.64277 -0.0379,1.16707 -0.96875,1.16707 -0.92952,0 -1.69004,0.51661 -1.69004,1.14802 0,0.63141 -0.48224,0.84998 -1.07163,0.48572 -0.59359,-0.36686 -0.80759,0.0258 -0.47971,0.88018 0.32553,0.84836 -0.16787,1.83402 -1.09647,2.19036 -0.9286,0.35633 -1.67751,1.27297 -1.66425,2.03697 0.0384,2.21396 4.07365,6.8729 5.05095,5.83164 0.48794,-0.51989 0.2774,-1.16302 -0.46788,-1.42919 -0.74528,-0.26617 -1.35506,-1.2079 -1.35506,-2.09272 0,-1.18357 0.64466,-1.39657 2.4391,-0.80586 1.3415,0.44162 4.14646,1.15011 6.23325,1.57445 2.08678,0.42434 3.10307,0.82763 2.25841,0.89619 -0.84464,0.0686 -1.26984,0.39054 -0.94489,0.7155 0.32496,0.32495 2.72341,0.10711 5.32988,-0.48399 8.4305,-1.91205 19.17029,-2.20031 19.81058,-0.53173 0.31298,0.81561 0.22075,1.41132 -0.20497,1.32383 -1.56062,-0.32079 -5.1863,1.76109 -8.0913,4.64602 -2.94391,2.9237 -4.00207,4.9704 -1.89708,3.6694 0.59623,-0.3685 1.08405,0.09 1.08405,1.0201 0,0.9295 -0.73173,1.69 -1.62607,1.69 -1.96015,0 -2.09568,1.2649 -0.32521,3.0353 0.71547,0.7155 0.83742,1.3083 0.27101,1.3175 -0.56641,0.01 -0.29811,0.5341 0.59622,1.1665 1.00925,0.7138 1.18474,1.3344 0.46265,1.636 -1.75721,0.7339 -0.50315,6.9373 1.40244,6.9373 0.95172,0 1.37602,0.6332 1.02945,1.5363 -0.6362,1.6579 1.30337,2.7589 5.05344,2.8685 2.29891,0.067 2.30209,0.088 0.1447,0.9628 -1.21314,0.4918 -2.85828,1.6804 -3.65586,2.6414 -1.20935,1.4572 -1.20989,2.0368 -0.003,3.4907 1.22539,1.4765 1.15255,1.9586 -0.47592,3.1494 -1.05754,0.7733 -3.23432,1.207 -4.83728,0.9638 -1.60295,-0.2432 -3.94699,-0.6106 -5.20895,-0.8164 -1.77814,-0.2899 -2.17659,0.077 -1.77064,1.629 0.28807,1.1018 -0.0209,2.0032 -0.68668,2.0032 -0.66576,0 -1.21047,-0.4878 -1.21047,-1.0841 0,-1.7364 -3.25686,-1.249 -3.96379,0.5932 -0.43274,1.1277 -1.75354,1.5717 -4.03114,1.3551 -2.26078,-0.215 -3.29738,0.1285 -3.11651,1.0329 0.14906,0.7452 -0.2168,1.355 -0.81303,1.355 -0.59622,0 -1.08404,-0.7029 -1.08404,-1.5621 0,-0.8591 -0.48782,-1.8636 -1.08404,-2.232 -0.6167,-0.3812 -1.08405,0.5472 -1.08405,2.1533 0,3.3533 4.81594,8.6465 6.76874,7.4396 1.89436,-1.1708 8.79874,-0.4041 9.74632,1.0823 0.49894,0.7826 0.80262,0.8205 0.81303,0.1014 0.009,-0.6313 0.69553,-2.0763 1.52536,-3.2112 1.24241,-1.6991 1.79947,-1.8221 3.15561,-0.6966 1.11182,0.9228 1.8751,0.9975 2.34937,0.2301 0.9705,-1.5703 3.97732,-1.3643 6.35147,0.435 1.61067,1.2208 1.75608,1.9263 0.77488,3.7597 -0.66432,1.2413 -2.19956,2.2569 -3.41163,2.2569 -2.17792,0 -2.17587,0.039 0.1744,3.3399 2.06233,2.8962 2.19525,3.6815 1.00093,5.9131 -0.75747,1.4154 -2.99326,3.3403 -4.9684,4.2775 -1.97514,0.9373 -3.89686,2.1988 -4.27047,2.8033 -0.37362,0.6045 -1.51647,0.8334 -2.53966,0.5087 -1.05387,-0.3345 -3.45539,0.5863 -5.53959,2.124 -2.02358,1.4929 -4.2755,2.7144 -5.00427,2.7144 -0.72878,0 -2.34175,1.3415 -3.58439,2.9811 l -2.25935,2.9811 -2.10759,-2.4855 c -1.85227,-2.1844 -2.39463,-2.3157 -4.47695,-1.084 -1.72886,1.0226 -2.49164,1.0663 -2.82169,0.1616 -0.31139,-0.8535 -2.13862,-0.5274 -5.86417,1.0466 -4.39484,1.8568 -5.80165,2.043 -7.48611,0.991 -1.20267,-0.7511 -2.33319,-0.8764 -2.69049,-0.2983 -0.36716,0.5941 -1.9934,0.517 -4.02329,-0.1906 -2.98738,-1.0414 -3.64006,-0.8999 -5.29899,1.1488 -1.30154,1.6073 -3.10638,2.3365 -5.78337,2.3365 -2.14027,0 -3.8914,0.4878 -3.8914,1.084 0,0.5963 -0.71467,1.0841 -1.58817,1.0841 -0.8735,0 -3.69568,0.7155 -6.27149,1.59 -4.11657,1.3976 -5.32343,1.3974 -9.973,-0 -6.1008,-1.836 -7.68465,-1.4242 -2.81407,0.7317 2.19489,0.9716 3.11862,2.0149 2.71508,3.0665 -0.33642,0.8767 -0.2649,1.2472 0.15893,0.8234 1.06087,-1.0609 3.68017,1.2765 3.68017,3.2841 0,0.9021 1.09759,2.6979 2.4391,3.9908 4.15393,4.0033 8.48802,9.3033 10.76832,13.1682 1.20083,2.0352 2.50101,3.7112 2.88929,3.7243 0.38827,0.013 2.16941,2.2072 3.95808,4.8758 1.78867,2.6686 3.89069,4.853 4.67116,4.8543 0.78046,0 1.11754,0.4902 0.74905,1.0865 -0.36849,0.5962 0.0905,1.084 1.02006,1.084 1.99709,0 2.2473,-3.3452 0.38919,-5.2034 -0.71546,-0.7155 -2.17892,-1.3008 -3.25212,-1.3008 -1.07321,0 -1.95128,-0.5167 -1.95128,-1.148 0,-0.6315 0.41394,-0.8922 0.91988,-0.5796 0.50592,0.3127 1.94898,-0.3902 3.20679,-1.5621 2.60985,-2.4314 4.53797,-2.7592 4.56227,-0.7755 0.0113,0.9162 0.38354,0.8285 1.14982,-0.271 0.84289,-1.2095 0.95543,-0.7235 0.43929,1.8971 -0.60972,3.0956 -0.41172,3.5231 1.63156,3.5231 3.53928,0 6.51911,-1.9994 6.51911,-4.3743 0,-1.1714 0.39932,-2.13 0.88737,-2.13 0.48806,0 1.70018,-1.5854 2.69362,-3.5231 l 1.80625,-3.5231 -0.65563,4.1155 -0.65564,4.1156 4.26895,-2.2251 c 2.34793,-1.2238 5.31299,-3.1977 6.58903,-4.3866 1.27605,-1.1887 2.58439,-2.1615 2.90743,-2.1615 0.32304,0 1.56299,-0.9756 2.75543,-2.168 1.19245,-1.1925 2.90951,-2.1681 3.81569,-2.1681 0.90618,0 3.5356,-1.1918 5.84314,-2.6486 2.30755,-1.4566 4.49304,-2.351 4.85665,-1.9874 0.36361,0.3638 0.66112,-0.1517 0.66112,-1.1454 0,-0.9937 0.75262,-1.8067 1.67248,-1.8067 1.84166,0 13.80471,-6.2412 19.89279,-10.3782 2.12905,-1.4467 4.31704,-2.6304 4.8622,-2.6304 3.69124,0 20.14095,-14.3348 20.21813,-17.6188 0.0474,-2.0141 6.19197,-8.3982 8.08326,-8.3982 0.90275,0 1.64135,-0.4095 1.64135,-0.91 0,-1.8021 5.64636,-3.4262 11.9115,-3.4262 3.5141,0 6.67471,-0.4618 7.02359,-1.0263 0.92565,-1.4977 10.24408,-7.646 11.58843,-7.646 0.63012,0 0.86489,-0.7317 0.52169,-1.6261 -0.34318,-0.8943 -0.16366,-1.626 0.39895,-1.626 0.56261,0 2.02296,-2.1952 3.2452,-4.8782 1.22225,-2.683 2.77921,-4.8782 3.4599,-4.8782 0.68069,0 0.96241,-0.2752 0.62603,-0.6116 -0.94215,-0.9421 7.43119,-9.0436 10.58737,-10.2435 1.54102,-0.5859 2.49767,-1.5575 2.12588,-2.159 -0.37177,-0.6016 0.20865,-1.4123 1.28983,-1.8017 2.66878,-0.9611 5.33633,-3.8227 6.25155,-6.7063 0.41628,-1.3115 2.06136,-3.191 3.65575,-4.1766 3.26279,-2.017 7.7771,-6.34792 7.7771,-7.46114 0,-0.40326 0.87682,-1.52214 1.9485,-2.48641 2.70027,-2.42964 6.72384,-8.32965 6.72384,-9.85959 0,-0.69709 2.43909,-3.681 5.42021,-6.63091 2.98112,-2.9499 5.42021,-6.08486 5.42021,-6.96655 0,-0.8817 0.76052,-1.60309 1.69005,-1.60309 0.92952,0 1.38641,-0.49126 1.01532,-1.09169 -0.37108,-0.60044 0.0879,-1.38436 1.02008,-1.74205 0.93212,-0.35769 1.69477,-1.32988 1.69477,-2.16043 0,-0.83054 0.73172,-1.51008 1.62606,-1.51008 0.89433,0 1.62606,-0.64723 1.62606,-1.43828 0,-0.79105 2.19519,-3.82929 4.87819,-6.75164 2.68301,-2.92235 4.8782,-5.69486 4.8782,-6.16113 0,-0.46628 1.75425,-3.34357 3.89833,-6.39399 2.14409,-3.05042 4.387,-6.94797 4.98425,-8.66122 0.59724,-1.71326 1.40691,-3.11502 1.79926,-3.11502 0.39236,0 1.3206,-1.37182 2.06277,-3.0485 0.74217,-1.67668 2.20275,-4.02249 3.24574,-5.21292 2.8907,-3.29935 5.64671,-8.8447 8.55505,-17.21358 1.45039,-4.17356 3.19239,-8.56393 3.8711,-9.75638 0.67872,-1.19245 1.78426,-5.095 2.45675,-8.67234 0.67249,-3.57734 1.73398,-6.40639 2.35885,-6.28676 0.63298,0.12117 0.92409,-0.89177 0.65734,-2.28721 -0.34791,-1.81996 0.10646,-2.65774 1.66193,-3.06452 1.64408,-0.42993 2.01459,-1.21968 1.59703,-3.40401 -0.29904,-1.56432 -1.25921,-2.8442 -2.13373,-2.8442 -0.87452,0 -1.37635,-0.60978 -1.11517,-1.35506 0.45876,-1.3091 -3.51057,-7.0174 -8.83023,-12.69878 -5.45903,-5.83022 -7.49997,-10.4751 -9.33716,-21.25005 -1.60119,-9.39081 -3.90381,-39.32772 -3.11039,-40.43881 1.18245,-1.65585 55.32722,4.47659 70.41116,7.9748 11.24419,2.60769 19.24688,8.09807 22.76419,15.61774 7.96842,17.03567 12.94893,26.31786 16.42731,30.6157 10.81421,13.36183 24.05689,27.30826 36.26585,38.19313 1.61157,1.43679 3.27983,4.00569 3.70725,5.70867 0.66617,2.65425 -0.74203,11.34755 -3.50996,21.66804 -0.52183,1.94573 -0.0293,2.40994 3.19961,3.0157 5.91769,1.11016 22.24743,9.73669 29.34348,15.50131 3.52074,2.86014 8.15502,6.2152 10.2984,7.45567 5.68982,3.29295 16.35043,9.22489 20.55816,11.43926 2.00892,1.05723 4.44802,2.57594 5.42021,3.3749 1.61242,1.32512 4.52199,2.81625 8.81389,4.51704 0.89434,0.35441 5.52862,2.78524 10.29841,5.40185 4.76978,2.61661 13.79444,7.35775 20.05478,10.53588 11.42229,5.79863 24.44988,13.7359 28.99105,17.66324 2.3417,2.02517 6.9694,4.99108 13.8286,8.86261 1.7887,1.0096 7.7645,4.7655 13.2796,8.3465 l 10.0273,6.5108 0,136.9742 0,136.9742 -509.49995,0 -509.5,0 0,-3.2522 z m 14.092553,-5.5481 c 0,-0.5962 -0.487819,-0.7826 -1.084042,-0.4141 -0.596224,0.3685 -1.084043,1.1578 -1.084043,1.754 0,0.5962 0.487819,0.7826 1.084043,0.4141 0.596223,-0.3685 1.084042,-1.1578 1.084042,-1.754 z m 20.596809,-17.4822 c 0,-0.6047 -0.719002,-0.4873 -1.626064,0.2654 -0.894335,0.7423 -1.626064,1.8374 -1.626064,2.4336 0,0.6047 0.719002,0.4873 1.626064,-0.2655 0.894335,-0.7422 1.626064,-1.8373 1.626064,-2.4335 z m -28.185107,-3.619 c 0,-1.9144 -2.333682,-1.581 -3.003701,0.4291 -0.236005,0.7079 0.34328,1.2873 1.287301,1.2873 0.94402,0 1.7164,-0.7724 1.7164,-1.7164 z m 15.176596,-4.7239 c 0,-0.561 -0.487819,-1.3216 -1.084042,-1.6901 -0.596224,-0.3684 -1.084043,0.09 -1.084043,1.0201 0,0.9295 0.487819,1.69 1.084043,1.69 0.596223,0 1.084042,-0.4589 1.084042,-1.02 z m -8.718224,-5.7552 c -0.06055,-1.7883 -7.38452,-6.4233 -9.500724,-6.0127 -3.616671,0.702 -2.462287,2.9924 1.856133,3.683 2.418579,0.3868 4.954176,1.374 5.634659,2.194 1.533799,1.848 2.06914,1.8842 2.009932,0.1357 z m 463.875073,-62.8745 c 3.3165,-2.6378 4.36747,-4.2041 4.18238,-6.2332 -0.20756,-2.2755 -0.87648,-2.7627 -4.17103,-3.0382 -3.19667,-0.2672 -4.03164,0.085 -4.50569,1.8971 -0.73911,2.8264 -2.54124,2.8518 -4.03698,0.057 -1.19376,-2.2306 -4.33617,-3.0162 -4.33617,-1.0841 0,1.9877 -2.36272,1.1159 -2.93802,-1.084 -0.36392,-1.3916 -1.47866,-2.1681 -3.11251,-2.1681 -1.44778,0 -3.05292,-0.9481 -3.7221,-2.1984 -1.58253,-2.957 -3.23588,-1.7013 -3.23588,2.4576 0,2.6387 1.13347,4.4421 5.1492,8.1929 8.54957,7.9853 13.70979,8.7824 20.7268,3.2013 z m -12.73272,-0.6962 -2.36504,-2.0511 3.28321,-1.1446 c 2.99759,-1.0449 3.29068,-0.9372 3.36882,1.2382 0.0471,1.3105 0.33841,1.7526 0.64743,0.9824 0.42924,-1.0698 0.918,-1.1047 2.07058,-0.1481 0.82978,0.6885 1.24138,1.6846 0.91464,2.2132 -1.02494,1.6584 -5.4535,1.049 -7.91964,-1.09 z m 12.87374,-13.6673 c 0,-1.637 0.61856,-2.7102 1.56209,-2.7102 2.80758,0 3.05108,-2.2755 0.5306,-4.9584 -1.35883,-1.4464 -3.56448,-2.6299 -4.90142,-2.6299 -1.33694,0 -2.63536,-0.6097 -2.88537,-1.355 -0.30616,-0.9127 -2.70065,-1.314 -7.33432,-1.2292 -5.67357,0.1041 -7.21569,0.5407 -8.79579,2.4921 -2.80031,3.4582 -1.60191,5.6301 2.347,4.2535 2.46694,-0.86 3.8177,-0.6767 6.4433,0.8742 2.73143,1.6135 3.7009,1.7258 5.45315,0.6315 2.98229,-1.8624 3.24459,-1.7246 3.24459,1.7044 0,2.9258 1.66846,5.6371 3.46894,5.6371 0.47698,0 0.86723,-1.2196 0.86723,-2.7101 z m 33.0633,-99.1899 c -0.36849,-0.5963 -1.12901,-1.0841 -1.69004,-1.0841 -0.56104,0 -1.02007,0.4878 -1.02007,1.0841 0,0.5962 0.76053,1.084 1.69005,1.084 0.92952,0 1.38855,-0.4878 1.02006,-1.084 z m 21.13883,-23.849 c 0,-0.5962 -0.48782,-1.084 -1.08404,-1.084 -0.59622,0 -1.08404,0.4878 -1.08404,1.084 0,0.5962 0.48782,1.0841 1.08404,1.0841 0.59622,0 1.08404,-0.4879 1.08404,-1.0841 z m -4.33617,-17.3447 c 0,-0.5962 -0.48782,-1.084 -1.08404,-1.084 -0.59623,0 -1.08404,0.4878 -1.08404,1.084 0,0.5963 0.48781,1.0841 1.08404,1.0841 0.59622,0 1.08404,-0.4878 1.08404,-1.0841 z m 1.62606,-6.5042 c 0.36849,-0.5962 -0.0618,-1.0841 -0.95609,-1.0841 -0.89433,0 -1.92755,0.4879 -2.29603,1.0841 -0.36849,0.5962 0.0618,1.084 0.95609,1.084 0.89434,0 1.92755,-0.4878 2.29603,-1.084 z m -5.96223,-14.1565 c 0,-0.6315 -0.48782,-0.8466 -1.08404,-0.4781 -0.59623,0.3685 -1.08404,0.8851 -1.08404,1.148 0,0.263 0.48781,0.4781 1.08404,0.4781 0.59622,0 1.08404,-0.5166 1.08404,-1.148 z M 513.38995,880.76803 c -0.31157,-0.81195 -0.5665,-1.92832 -0.5665,-2.48084 0,-0.55251 -0.97563,-0.39527 -2.16808,0.34942 -3.05496,1.90786 -2.73005,4.10682 0.5665,3.83399 1.80957,-0.14976 2.54295,-0.72568 2.16808,-1.70257 z m 95.37127,-18.64363 c -0.36849,-0.59622 -0.8851,-1.08404 -1.14802,-1.08404 -0.26293,0 -0.47804,0.48782 -0.47804,1.08404 0,0.59623 0.51661,1.08404 1.14802,1.08404 0.63141,0 0.84653,-0.48781 0.47804,-1.08404 z M 462.9575,849.65791 c -0.76615,-0.92315 -1.63691,-1.43454 -1.93502,-1.13643 -0.29811,0.29811 0.0849,1.29733 0.85097,2.22048 0.76615,0.92314 1.63691,1.43454 1.93502,1.13643 0.29811,-0.29811 -0.0849,-1.29733 -0.85097,-2.22048 z m 18.42872,-12.80131 c 0,-0.78039 -0.69689,-2.3658 -1.54864,-3.52314 -1.44324,-1.96106 -1.59869,-1.97515 -2.28407,-0.2072 -0.40448,1.04339 -0.45463,2.62881 -0.11144,3.52314 0.7669,1.9985 3.94415,2.16541 3.94415,0.2072 z m 2.28871,-47.36305 c 3.71813,0 11.80384,-3.81454 11.80384,-5.56862 0,-0.70508 1.18445,-0.96197 2.91241,-0.63164 4.11842,0.78728 6.16633,-0.13418 4.57083,-2.05665 -0.99968,-1.20453 -0.73857,-1.50273 1.32738,-1.51607 1.41451,-0.009 3.30356,-0.47931 4.19789,-1.04484 1.42338,-0.90007 1.39168,-1.2627 -0.25434,-2.90914 -4.3277,-4.32882 -18.77892,-5.43975 -25.76268,-1.98049 -1.49056,0.73832 -7.34439,1.42958 -13.00851,1.53614 -8.386,0.15778 -10.67522,0.56548 -12.32755,2.19552 -1.98233,1.95557 -1.97832,2.02896 0.17367,3.18067 1.21155,0.6484 3.81482,2.7706 5.78505,4.71601 2.99849,2.96072 3.64557,3.22796 3.97097,1.64002 0.5221,-2.54783 2.09112,-2.4032 2.93988,0.27101 0.37848,1.19244 1.57116,2.16808 2.65042,2.16808 1.07928,0 2.5583,0.71812 3.28673,1.59584 1.16613,1.40509 1.51518,1.40509 2.92028,0 0.87771,-0.87772 3.04389,-1.59584 4.81373,-1.59584 z m 68.17406,-15.30303 c 0,-1.12252 -2.31745,-1.24823 -4.88043,-0.26473 -1.29111,0.49545 -1.43663,0.92093 -0.51068,1.4932 1.57259,0.97191 5.39111,0.10179 5.39111,-1.22847 z m -11.92447,-1.49963 c -0.74224,-0.89433 -2.8752,-1.59853 -4.73991,-1.56488 l -3.39041,0.0611 3.79415,1.43554 c 5.16792,1.95532 5.91208,1.96702 4.33617,0.0682 z m 24.93298,-2.77409 c 0,-0.63141 -0.48782,-0.84652 -1.08405,-0.47804 -0.59622,0.36849 -1.08404,0.8851 -1.08404,1.14803 0,0.26292 0.48782,0.47804 1.08404,0.47804 0.59623,0 1.08405,-0.51661 1.08405,-1.14803 z m -14.09256,-7.89832 c 0,-0.20571 -1.04662,-1.3033 -2.32582,-2.43909 -2.31336,-2.05403 -2.31896,-2.05202 -1.04591,0.374 1.05671,2.01371 3.37173,3.4316 3.37173,2.06509 z m -9.75638,-2.9941 c 0,-0.66001 -0.67229,-0.94205 -1.49396,-0.62673 -0.82168,0.3153 -2.04123,0.026 -2.71011,-0.64285 -0.89211,-0.89211 -1.21614,-0.89361 -1.21614,-0.005 0,1.24731 1.68787,2.2395 4.06516,2.38964 0.74528,0.0471 1.35505,-0.45442 1.35505,-1.11444 z m -98.90609,-5.69372 c 1.91652,-4.80509 0.54605,-7.50956 -2.75273,-5.43219 -2.21725,1.39628 -2.85226,3.90908 -1.92326,7.61049 0.90968,3.62447 2.69285,2.79378 4.67599,-2.1783 z m 133.59545,2.49359 c 0,-0.56103 -0.97564,-1.02006 -2.16808,-1.02006 -2.39145,0 -2.95225,1.70612 -0.81303,2.47348 1.63972,0.58819 2.98111,-0.0658 2.98111,-1.45342 z m -83.47127,-7.52432 c 0,-0.59622 -0.51662,-1.08404 -1.14803,-1.08404 -0.63141,0 -0.84653,0.48782 -0.47804,1.08404 0.36849,0.59623 0.8851,1.08405 1.14802,1.08405 0.26293,0 0.47805,-0.48782 0.47805,-1.08405 z m -0.4462,-10.56393 c -1.1842,-1.1842 -1.99624,0.69906 -1.14602,2.65787 0.80618,1.85737 0.86462,1.85568 1.31379,-0.038 0.25854,-1.09006 0.18305,-2.26895 -0.16777,-2.61977 z m -38.56277,-6.98677 c -1.37468,-0.50852 -2.78033,-0.64368 -3.12367,-0.30034 -1.02058,1.02057 2.23228,2.52612 3.99578,1.84939 1.24087,-0.47615 1.03375,-0.84402 -0.87211,-1.54905 z m -105.22434,-9.04272 c 0.54098,0.33434 1.2955,-0.37483 1.67671,-1.57594 0.38122,-1.20111 1.20027,-2.18383 1.8201,-2.18383 0.61983,0 0.83258,0.76717 0.47277,1.70482 -0.97038,2.52877 2.6203,1.51046 4.1002,-1.1628 0.66013,-1.19244 1.61817,-2.47297 2.12899,-2.84561 0.51082,-0.37264 0.38887,-1.0112 -0.27101,-1.41903 -2.23372,-1.38052 -1.27199,-5.79656 1.78134,-8.17956 1.96201,-1.53126 2.51789,-2.51952 1.62607,-2.89086 -2.32484,-0.96804 -1.48386,-2.55164 1.35505,-2.55164 1.98741,0 2.71011,-0.57815 2.71011,-2.16808 0,-1.19245 0.70293,-2.16809 1.56208,-2.16809 2.67464,0 3.03501,-2.14143 0.51712,-3.07286 -1.76124,-0.65152 -2.45267,-1.86998 -2.60914,-4.59801 -0.11708,-2.04137 -0.61092,-5.37887 -1.09741,-7.41666 -0.7992,-3.34763 -0.68811,-3.62971 1.1514,-2.92381 1.11976,0.42969 1.68916,0.43449 1.26535,0.0108 -0.42383,-0.42382 -0.16505,-1.50387 0.57506,-2.40013 1.15217,-1.39525 0.92484,-1.54958 -1.58116,-1.07348 -3.37364,0.64095 -5.29493,-2.17266 -2.5374,-3.71586 0.91853,-0.51421 1.67005,-1.88618 1.67005,-3.049 0,-1.39152 0.74111,-2.11422 2.16809,-2.11422 1.19245,0 2.16808,-0.67954 2.16808,-1.51008 0,-0.83055 0.78707,-1.81212 1.74905,-2.18126 1.10939,-0.42571 1.54296,-1.45927 1.18553,-2.82609 -0.30993,-1.1852 -0.12694,-2.15491 0.40665,-2.15491 1.607,0 5.33112,-3.63011 5.33112,-5.19654 0,-1.12521 -0.39296,-1.06963 -1.7035,0.24091 -0.93692,0.93693 -2.15647,1.7035 -2.71011,1.7035 -1.64663,0 -1.14208,-2.96818 0.61946,-3.64415 0.89433,-0.34318 1.62606,-1.15589 1.62606,-1.80601 0,-0.65013 -0.39831,-0.93588 -0.88514,-0.635 -0.48682,0.30087 -1.69512,-0.82415 -2.6851,-2.50004 -1.35931,-2.30114 -2.86863,-3.19043 -6.16534,-3.63261 -5.42552,-0.72772 -8.69314,0.0654 -8.69314,2.10982 0,0.85998 -0.49578,1.2572 -1.10173,0.8827 -0.60594,-0.37449 -0.7817,-1.19871 -0.39056,-1.8316 0.83023,-1.34333 -15.82414,-0.13356 -17.28263,1.25541 -0.48851,0.46523 -3.0778,0.59908 -5.75399,0.29743 -4.29358,-0.48395 -4.93701,-0.27607 -5.47146,1.7677 -0.33314,1.27388 -1.01821,2.31614 -1.5224,2.31614 -1.16148,0 -0.0515,17.2312 1.26894,19.69843 0.54158,1.01194 0.98468,3.05085 0.98468,4.53093 0,1.48006 0.57332,2.88213 1.27403,3.11571 0.70072,0.23357 1.37084,2.72191 1.48915,5.52965 0.17783,4.22017 -0.043,4.89077 -1.27403,3.8691 -1.20961,-1.00389 -1.48915,-0.59038 -1.48915,2.20281 0,3.59516 2.29041,8.98415 5.25213,12.35748 0.9562,1.0891 1.85376,3.7721 1.99456,5.96224 0.14081,2.19013 0.47853,5.2016 0.7505,6.69216 0.27196,1.49056 0.53512,3.05915 0.58481,3.48576 0.0496,0.42661 1.55401,2.27298 3.34295,4.10304 2.72769,2.79039 3.60606,3.13822 5.44262,2.15533 1.2045,-0.64462 2.63262,-0.89849 3.17359,-0.56415 z m 21.19448,-38.44913 c -0.36849,-0.59622 -0.8851,-1.08404 -1.14803,-1.08404 -0.26292,0 -0.47804,0.48782 -0.47804,1.08404 0,0.59622 0.51661,1.08404 1.14802,1.08404 0.63142,0 0.84653,-0.48782 0.47805,-1.08404 z m 7.04627,-3.85813 c 0,-1.79713 -5.97377,-2.2134 -7.0386,-0.49045 -0.3697,0.59817 0.0319,0.80526 0.90885,0.46872 0.86414,-0.33161 2.23097,0.1106 3.03742,0.98267 1.66382,1.79921 3.09233,1.3553 3.09233,-0.96094 z m -4.33617,-7.39159 c 0,-3.09728 -2.64839,-5.78075 -3.8255,-3.87615 -0.83754,1.35517 1.47296,6.45353 2.92464,6.45353 0.49547,0 0.90086,-1.15982 0.90086,-2.57738 z m -10.2984,-40.84023 c 0,-0.25117 2.52106,-0.76139 8.40133,-1.70029 2.23584,-0.357 4.06516,-1.08354 4.06516,-1.61453 0,-0.53099 0.65613,-0.96544 1.45805,-0.96544 0.80193,0 2.34099,-0.97564 3.42014,-2.16809 1.07915,-1.19244 2.61821,-2.16808 3.42014,-2.16808 0.80192,0 1.45805,-0.7961 1.45805,-1.76913 0,-0.97301 0.96684,-3.33349 2.14853,-5.24552 1.83499,-2.96907 1.95364,-3.89222 0.81303,-6.32577 -1.81469,-3.87177 -10.00326,-5.80984 -14.54295,-3.44202 -1.67925,0.87587 -5.49228,1.611 -8.4734,1.63364 -5.14176,0.039 -5.30884,0.12959 -3.25212,1.76279 2.0605,1.63621 1.96636,1.69167 -1.89708,1.11772 -2.23584,-0.33215 -4.06516,-0.19896 -4.06516,0.29599 0,1.25567 2.8516,2.21591 6.58053,2.21591 3.36081,0 7.51202,2.82887 7.51202,5.11911 0,1.50305 -0.10818,1.54311 -4.78796,1.77231 -1.73904,0.0852 -3.36511,0.76464 -3.61347,1.50991 -0.24837,0.74528 -1.13141,1.35506 -1.96232,1.35506 -0.8309,0 -2.33164,1.25287 -3.33498,2.78416 -1.3539,2.06631 -2.44864,2.62743 -4.24597,2.17634 -2.04163,-0.51242 -2.39727,-0.18735 -2.2659,2.07111 0.15045,2.5866 0.37999,2.66387 6.66007,2.24227 3.57734,-0.24015 6.50426,-0.53601 6.50426,-0.65745 z M 361.0575,614.9627 c 0,-0.59622 -0.48782,-1.08404 -1.08405,-1.08404 -0.59622,0 -1.08404,0.48782 -1.08404,1.08404 0,0.59622 0.48782,1.08404 1.08404,1.08404 0.59623,0 1.08405,-0.48782 1.08405,-1.08404 z m -15.1766,-72.63085 c 0,-0.59622 -0.73173,-1.08404 -1.62606,-1.08404 -0.89434,0 -1.62607,0.48782 -1.62607,1.08404 0,0.59622 0.73173,1.08404 1.62607,1.08404 0.89433,0 1.62606,-0.48782 1.62606,-1.08404 z m 2.16809,-28.18511 c 0,-0.59622 -0.51662,-1.08404 -1.14803,-1.08404 -0.63141,0 -0.84653,0.48782 -0.47804,1.08404 0.36849,0.59623 0.8851,1.08405 1.14803,1.08405 0.26292,0 0.47804,-0.48782 0.47804,-1.08405 z m -4.13292,-38.68201 c -0.78254,-0.31314 -1.71753,-0.27464 -2.07775,0.0855 -0.36021,0.36022 0.28005,0.61643 1.42281,0.56936 1.26285,-0.052 1.51972,-0.30888 0.65494,-0.65493 z m 0.88079,-10.64192 c 0,-0.89434 -0.48782,-1.62607 -1.08404,-1.62607 -0.59623,0 -1.08405,0.73173 -1.08405,1.62607 0,0.89433 0.48782,1.62606 1.08405,1.62606 0.59622,0 1.08404,-0.73173 1.08404,-1.62606 z m 339.83641,-16.82034 c -0.37449,-0.60595 -1.13501,-0.82108 -1.69004,-0.47805 -1.50361,0.92928 -1.22325,1.57977 0.68091,1.57977 0.92952,0 1.38363,-0.49578 1.00913,-1.10172 z m 7.05721,-3.77647 c 0,-0.89434 -0.73173,-1.62607 -1.62607,-1.62607 -0.89433,0 -1.62606,0.73173 -1.62606,1.62607 0,0.89433 0.73173,1.62606 1.62606,1.62606 0.89434,0 1.62607,-0.73173 1.62607,-1.62606 z m 38.48351,-4.87819 c -0.36849,-0.59623 -0.8851,-1.08405 -1.14803,-1.08405 -0.26292,0 -0.47804,0.48782 -0.47804,1.08405 0,0.59622 0.51661,1.08404 1.14803,1.08404 0.63141,0 0.84652,-0.48782 0.47804,-1.08404 z M 352.38516,427.90138 c 0,-0.92952 -0.49578,-1.38363 -1.10173,-1.00914 -0.60594,0.3745 -0.82107,1.13502 -0.47804,1.69005 0.92928,1.50361 1.57977,1.22324 1.57977,-0.68091 z m 382.66702,-8.06634 c 0,-0.59622 -0.51661,-1.08404 -1.14803,-1.08404 -0.63141,0 -0.84652,0.48782 -0.47804,1.08404 0.36849,0.59622 0.8851,1.08404 1.14803,1.08404 0.26292,0 0.47804,-0.48782 0.47804,-1.08404 z M 472.71388,289.86592 c 0,-0.53244 -0.77162,-1.26417 -1.71473,-1.62607 -2.65187,-1.01762 -3.00225,-0.79699 -1.5374,0.96806 1.4956,1.80209 3.25213,2.15749 3.25213,0.65801 z m 107.32021,-2.28407 c 0,-0.59622 -0.45902,-1.08404 -1.02006,-1.08404 -0.56104,0 -1.32156,0.48782 -1.69004,1.08404 -0.36849,0.59622 0.0905,1.08404 1.02006,1.08404 0.92952,0 1.69004,-0.48782 1.69004,-1.08404 z M 53.483006,1237.6322 c 0.360219,-0.3602 1.295206,-0.3987 2.077749,-0.086 0.864776,0.346 0.607905,0.6029 -0.654943,0.6549 -1.142761,0.047 -1.783023,-0.2092 -1.422806,-0.5694 z m -34.982956,-2.8889 c 0,-1.5396 0.587635,-1.7791 2.981117,-1.215 2.958772,0.6974 5.737281,2.4664 4.281968,2.7263 -4.485871,0.801 -7.263085,0.2232 -7.263085,-1.5113 z m 11.924468,-1.8763 c 0,-0.5963 0.487819,-1.0841 1.084043,-1.0841 0.596223,0 1.084042,0.4878 1.084042,1.0841 0,0.5962 -0.487819,1.084 -1.084042,1.084 -0.596224,0 -1.084043,-0.4878 -1.084043,-1.084 z M 498.23518,1119.1174 c -0.8017,-1.2972 1.23756,-2.5824 2.68149,-1.69 1.21235,0.7493 0.41645,2.6991 -1.10173,2.6991 -0.52584,0 -1.23674,-0.4541 -1.57976,-1.0091 z m 2.30246,-2.9657 c -1.24734,-1.2473 -0.78944,-2.5294 0.90337,-2.5294 0.89433,0 1.62606,0.7317 1.62606,1.626 0,1.6929 -1.2821,2.1508 -2.52943,0.9034 z m 46.97518,-49.1433 c 0,-0.5962 0.21511,-1.084 0.47804,-1.084 0.26292,0 0.77953,0.4878 1.14802,1.084 0.36849,0.5963 0.15337,1.0841 -0.47804,1.0841 -0.63141,0 -1.14802,-0.4878 -1.14802,-1.0841 z m 7.8593,-10.4743 c -1.53504,-0.6194 -1.86445,-3.6182 -0.39744,-3.6182 0.52668,0 1.21274,0.9756 1.52458,2.1681 0.31183,1.1924 0.49068,2.1295 0.39744,2.0825 -0.0932,-0.047 -0.7793,-0.3317 -1.52458,-0.6324 z m 2.98112,-53.0134 c 0,-1.6077 2.38368,-4.80165 3.20475,-4.29419 1.40787,0.87009 0.005,4.90749 -1.70512,4.90749 -0.82479,0 -1.49963,-0.276 -1.49963,-0.6133 z m -4.87819,-2.6389 c 0.36849,-0.5962 1.15779,-1.08399 1.75401,-1.08399 0.59623,0 0.78256,0.48779 0.41408,1.08399 -0.36849,0.5963 -1.15779,1.0841 -1.75402,1.0841 -0.59622,0 -0.78256,-0.4878 -0.41407,-1.0841 z m 11.38245,-8.13027 c 0,-1.01177 1.02381,-1.62606 2.7101,-1.62606 3.02768,0 3.63447,1.58141 0.99538,2.59412 -2.71262,1.04093 -3.70548,0.78154 -3.70548,-0.96806 z m 13.46289,-127.5168 c -1.10925,-1.79481 1.03185,-3.08295 2.47844,-1.49108 1.02714,1.13029 0.97658,1.56468 -0.23629,2.03011 -0.84868,0.32566 -1.85765,0.0831 -2.24215,-0.53903 z m 76.04082,0.25539 c -0.32987,-0.53374 0.12915,-1.25017 1.02006,-1.59204 0.98394,-0.37757 1.61984,0.003 1.61984,0.97045 0,1.75332 -1.69394,2.15218 -2.6399,0.62159 z m -136.11754,-4.44976 c 0,-0.59622 0.73173,-1.08404 1.62606,-1.08404 0.89434,0 1.62606,0.48782 1.62606,1.08404 0,0.59622 -0.73172,1.08404 -1.62606,1.08404 -0.89433,0 -1.62606,-0.48782 -1.62606,-1.08404 z m 76.06365,-2.16809 c 0.54566,-1.63695 2.28889,-1.80565 2.80044,-0.27101 0.24843,0.74528 -0.36134,1.35506 -1.35505,1.35506 -0.99371,0 -1.64414,-0.48782 -1.44539,-1.08405 z m 16.26064,-13.00851 c 0.54565,-1.63695 2.28889,-1.80565 2.80044,-0.27101 0.24843,0.74528 -0.36134,1.35506 -1.35505,1.35506 -0.99371,0 -1.64414,-0.48782 -1.44539,-1.08405 z M 462.68649,803.95221 c 0.74528,-0.30073 1.96482,-0.30073 2.7101,0 0.74528,0.30072 0.13551,0.54678 -1.35505,0.54678 -1.49056,0 -2.10033,-0.24606 -1.35505,-0.54678 z m 79.94813,-63.24057 c -0.36848,-0.59623 -0.15337,-1.08405 0.47805,-1.08405 0.63141,0 1.14802,0.48782 1.14802,1.08405 0,0.59622 -0.21512,1.08404 -0.47804,1.08404 -0.26293,0 -0.77954,-0.48782 -1.14803,-1.08404 z m -70.01934,-29.69236 c 3.44723,-4.15366 25.24796,-10.14397 32.18268,-8.84302 2.70206,0.50691 3.68932,1.25916 3.68932,2.81109 0,1.66477 -0.75517,2.12226 -3.52313,2.13437 -1.93773,0.009 -8.40133,1.2152 -14.36357,2.68163 -12.59354,3.0974 -19.96013,3.59543 -17.9853,1.21593 z M 726.65085,600.69697 c -1.93773,-2.4186 -3.52314,-5.03653 -3.52314,-5.81762 0,-3.63804 1.3991,-4.84963 5.60017,-4.84963 2.6018,0 4.01906,0.42896 3.60905,1.09236 -0.37131,0.6008 0.0922,1.85967 1.03003,2.7975 0.93784,0.93783 1.4342,2.14355 1.10303,2.67938 -0.33116,0.53585 -0.0934,1.92464 0.52817,3.08621 0.62165,1.16157 0.83594,2.87902 0.47618,3.81656 -1.16894,3.04617 -5.14963,1.78081 -8.82349,-2.80476 z m 6.23324,0.65122 c 0,-0.92953 -0.48782,-1.38855 -1.08404,-1.02006 -0.59622,0.36848 -1.08404,1.129 -1.08404,1.69004 0,0.56103 0.48782,1.02006 1.08404,1.02006 0.59622,0 1.08404,-0.76052 1.08404,-1.69004 z m -223.21773,-8.49386 c -1.02412,-1.23398 -0.84657,-1.96588 0.86335,-3.55892 1.18393,-1.103 2.66011,-3.34028 3.28039,-4.97174 1.01324,-2.66502 0.88277,-2.98373 -1.28449,-3.13804 -1.32675,-0.0944 -3.23655,-0.10548 -4.24401,-0.0244 -1.00747,0.0811 -2.13479,-0.80736 -2.50516,-1.9743 -0.37037,-1.16694 -1.00955,-2.07385 -1.42038,-2.01536 -3.62006,0.51543 -5.1669,-4.98252 -1.76871,-6.28654 0.93531,-0.3589 1.41683,-1.3555 1.07957,-2.23437 -0.38036,-0.99122 0.20639,-1.79968 1.56376,-2.15464 1.21589,-0.31796 2.17256,-1.4784 2.17256,-2.63531 0,-1.74669 -0.63027,-1.99688 -4.06516,-1.61363 -2.23584,0.24946 -4.91884,-1.3e-4 -5.96223,-0.55463 -1.17737,-0.62571 -1.89708,-0.62096 -1.89708,0.0125 0,0.56139 -0.97563,0.76557 -2.16808,0.45373 -1.19245,-0.31184 -2.16809,-0.99789 -2.16809,-1.52458 0,-0.5266 -0.96033,-0.95753 -2.13406,-0.95753 -1.45869,0 -1.9351,0.5185 -1.50536,1.63836 0.45257,1.17938 0.1322,1.44783 -1.1436,0.95827 -1.38812,-0.53268 -1.6184,-1.53402 -1.06236,-4.61948 0.94872,-5.26446 0.95522,-5.27126 4.5388,-4.7453 1.73241,0.25426 3.80681,-0.18861 4.65491,-0.99378 0.84142,-0.79884 3.22133,-2.22919 5.28867,-3.17856 3.58565,-1.64661 3.8447,-1.62164 5.62331,0.54202 1.50122,1.82622 2.24736,2.03391 3.82949,1.06596 1.08075,-0.6612 2.02597,-1.7588 2.1005,-2.4391 0.0746,-0.68029 0.19648,-1.75351 0.27101,-2.38492 0.0746,-0.63142 0.62332,-0.84653 1.21954,-0.47804 0.59623,0.36848 1.08405,0.15337 1.08405,-0.47805 0,-0.63141 1.70736,-1.14802 3.79415,-1.14802 2.61384,0 3.79414,-0.49525 3.79414,-1.59205 0,-0.92447 0.64081,-1.34613 1.52822,-1.0056 0.84053,0.32254 3.05427,-0.20271 4.91944,-1.16723 2.61034,-1.34986 4.94179,-1.58501 10.12523,-1.02122 3.70372,0.40284 7.3438,1.21643 8.08908,1.80797 0.92079,0.73084 1.35506,0.67895 1.35506,-0.16192 0,-0.77861 1.00485,-0.98522 2.7101,-0.55723 1.66986,0.4191 2.71011,0.21899 2.71011,-0.52137 0,-0.66086 0.85368,-1.19409 1.89707,-1.18496 1.45282,0.0127 1.55847,0.23124 0.45113,0.93318 -1.18244,0.74955 -1.15713,1.02741 0.13892,1.52475 0.87167,0.33449 2.08443,0.1086 2.695,-0.50198 0.7575,-0.75749 2.15202,-0.33985 4.39002,1.31476 1.90605,1.40922 4.0225,2.13995 5.05285,1.74456 0.97514,-0.3742 3.22321,0.0696 4.99569,0.98617 3.14662,1.62718 3.19002,1.6142 1.83866,-0.5497 -0.98369,-1.57512 -2.52942,-2.21621 -5.34349,-2.21621 -2.56278,0 -4.18507,-0.58805 -4.59915,-1.6671 -1.21522,-3.16681 6.36958,-3.95478 15.55518,-1.61601 4.10435,1.04501 5.03833,0.97572 6.08174,-0.45125 1.7123,-2.3417 3.74441,-2.05869 7.22696,1.00651 3.69648,3.25349 3.76999,4.21545 0.27101,3.54657 -1.6752,-0.32024 -2.7101,-0.0204 -2.7101,0.78516 0,0.71678 -2.6176,1.88903 -5.81688,2.605 -3.19928,0.71596 -6.73597,1.99763 -7.85931,2.84812 -1.12333,0.85051 -3.62784,1.56189 -5.56557,1.58086 -4.21344,0.0412 -4.66731,1.87409 -0.71002,2.8673 3.39921,0.85315 1.48369,2.54481 -2.91098,2.57079 -3.04768,0.018 -16.16277,6.14627 -16.16277,7.55233 0,0.47425 3.53668,0.92921 7.8593,1.01102 8.39114,0.15882 25.60965,3.06661 27.31788,4.61333 0.56641,0.51286 2.09209,0.93247 3.39041,0.93247 1.2983,0 2.96783,0.73173 3.71007,1.62607 0.74223,0.89433 2.04094,1.62606 2.88602,1.62606 3.59386,0 13.37461,6.74746 13.37461,9.22675 0,1.01444 -5.29705,0.52188 -5.96223,-0.55441 -0.36849,-0.59622 -1.7475,-1.08404 -3.06446,-1.08404 -1.31697,0 -4.24977,-1.2607 -6.51734,-2.80155 -3.02158,-2.05322 -5.83963,-2.89864 -10.55004,-3.16504 -3.53497,-0.19992 -6.4272,0.0851 -6.4272,0.63346 0,0.54833 0.69886,0.99696 1.55301,0.99696 0.85416,0 1.88619,1.04972 2.29339,2.33273 1.39261,4.38772 -8.83196,11.75982 -16.31003,11.75982 -2.0291,0 -4.07938,-0.60977 -4.55618,-1.35505 -0.47679,-0.74528 -2.77635,-2.32871 -5.11012,-3.51873 -2.33377,-1.19002 -5.1283,-3.61907 -6.21007,-5.39789 -2.7175,-4.46858 -5.08262,-5.02385 -9.8883,-2.32153 -2.89821,1.62972 -4.39047,3.39442 -5.14892,6.08895 -0.58737,2.08678 -1.43395,4.28457 -1.88128,4.88397 -0.94157,1.26169 -7.60647,3.72138 -11.93372,4.40415 -1.63469,0.25792 -4.49,0.72214 -6.34515,1.03158 -2.18724,0.36485 -3.82625,0.0165 -4.66228,-0.99084 z m 63.61505,-24.3022 c 0.23969,-0.71908 -0.56777,-1.2873 -1.82932,-1.2873 -2.25191,0 -2.92684,1.13832 -1.51314,2.55202 1.00433,1.00433 2.81441,0.31943 3.34246,-1.26472 z m -85.82003,-15.08626 c -0.36022,-0.36022 -0.61643,0.28005 -0.56936,1.4228 0.052,1.26286 0.30889,1.51972 0.65493,0.65495 0.31315,-0.78255 0.27465,-1.71754 -0.0855,-2.07775 z m 123.18449,17.35234 c -0.75211,-0.26961 -1.84582,-1.38401 -2.43047,-2.47643 -1.0027,-1.87357 -0.87905,-1.89445 2.18051,-0.36814 1.78393,0.88993 3.2435,1.79746 3.2435,2.01671 0,0.83342 -1.68113,1.29834 -2.99354,0.82786 z m -148.23039,-7.88955 c -1.76744,-0.75949 -1.82934,-0.94574 -0.335,-1.00785 1.00821,-0.0419 2.13459,0.41162 2.50308,1.00785 0.77039,1.24652 0.73272,1.24652 -2.16808,0 z m 42.81968,-16.26064 c 0,-0.59622 0.48782,-1.08404 1.08404,-1.08404 0.59622,0 1.08404,0.48782 1.08404,1.08404 0,0.59622 -0.48782,1.08404 -1.08404,1.08404 -0.59622,0 -1.08404,-0.48782 -1.08404,-1.08404 z m 216.80851,-10.90441 c 0,-0.63141 -0.44184,-0.87494 -0.98186,-0.54119 -0.54003,0.33375 -1.74668,-1.63778 -2.68145,-4.38117 -1.64254,-4.82061 -1.62582,-5.00729 0.49797,-5.56268 1.71611,-0.44877 2.12544,-1.31545 1.8684,-3.95617 -0.43208,-4.43924 2.53788,-6.83419 9.64404,-7.77686 l 5.4498,-0.72293 0,4.53935 c 0,3.33974 -0.55771,4.87547 -2.11041,5.81127 -1.16073,0.69955 -3.10232,3.22319 -4.31465,5.60809 -3.37135,6.63209 -7.37184,10.4212 -7.37184,6.98229 z m 6.77526,-25.4065 c -0.74528,-0.84649 -1.35886,-1.92553 -1.36351,-2.39785 -0.014,-1.4151 -5.89009,-3.75996 -6.30478,-2.5159 -0.85079,2.55238 -4.36419,-1.2162 -5.07916,-5.44809 -0.92267,-5.46124 -0.30327,-6.17103 3.31583,-3.7997 4.15125,2.72001 6.0975,1.60617 4.51575,-2.58436 -0.68788,-1.82237 -1.99741,-3.31721 -2.91009,-3.32186 -1.97529,-0.01 -4.98474,-5.7487 -3.30786,-6.30766 0.60854,-0.20285 1.10643,-1.2225 1.10643,-2.26589 0,-3.09371 1.05355,-3.28734 5.05157,-0.92844 2.08244,1.22866 3.38316,2.52966 2.89048,2.89108 -1.85303,1.35938 -1.3873,5.48606 0.74813,6.62892 1.53906,0.82367 2.15024,2.27114 2.15024,5.09243 0,2.16791 0.81436,4.84152 1.80968,5.94133 1.69535,1.87334 1.67913,2.09514 -0.25661,3.5106 -1.96592,1.4375 -1.97484,1.61197 -0.18362,3.59125 1.03547,1.14418 1.88268,2.4078 1.88268,2.80801 0,1.28272 -2.66469,0.69679 -4.06516,-0.89387 z m 9.48538,-16.7432 c 0,-0.63141 0.48781,-1.14802 1.08404,-1.14802 0.59622,0 1.08404,0.21512 1.08404,0.47804 0,0.26293 -0.48782,0.77954 -1.08404,1.14803 -0.59623,0.36848 -1.08404,0.15337 -1.08404,-0.47805 z M 355.10619,476.22293 c -0.37449,-0.60594 0.0796,-1.10172 1.00914,-1.10172 1.90415,0 2.18451,0.65049 0.6809,1.57976 -0.55503,0.34304 -1.31555,0.12791 -1.69004,-0.47804 z m 379.14358,-3.24323 c -2.39951,-2.39951 -5.0299,-4.37757 -5.84532,-4.39571 -0.99877,-0.0222 -0.86351,-0.39355 0.41448,-1.13791 1.12839,-0.65722 1.89708,-2.40087 1.89708,-4.3032 0,-2.12021 0.5481,-3.19827 1.62606,-3.19827 0.89434,0 1.62607,-0.48781 1.62607,-1.08404 0,-0.59622 0.48781,-1.08404 1.08404,-1.08404 1.73229,0 1.2524,4.52144 -0.71004,6.68991 -1.6694,1.84467 -1.6694,1.98243 0,1.98243 0.98675,0 1.79408,-0.73173 1.79408,-1.62606 0,-2.20082 1.38132,-2.05077 2.85578,0.3102 1.10579,1.77066 1.16775,10.66219 0.0819,11.74808 -0.25375,0.25374 -2.42458,-1.50189 -4.82409,-3.90139 z m 4.05454,-2.19466 c 0,-0.59622 -0.51662,-1.08404 -1.14803,-1.08404 -0.63141,0 -0.84653,0.48782 -0.47804,1.08404 0.36849,0.59622 0.8851,1.08404 1.14802,1.08404 0.26293,0 0.47805,-0.48782 0.47805,-1.08404 z m -19.18131,-3.8284 c 3.19983,-2.81509 5.08875,-3.40596 5.08875,-1.59181 0,0.59622 -0.73173,1.08404 -1.62606,1.08404 -0.89434,0 -1.62607,0.73173 -1.62607,1.62606 0,0.97375 -0.97847,1.61232 -2.43909,1.59181 -2.37153,-0.0333 -2.35483,-0.1084 0.60247,-2.7101 z m 4.51745,-7.04438 c -2.39899,-2.65085 -1.3294,-5.79316 1.65,-4.84753 1.19538,0.3794 3.15003,0.37985 4.34366,0.001 1.66637,-0.52888 2.01661,-1.30089 1.50854,-3.32518 -0.39755,-1.58399 -0.19029,-2.63637 0.51923,-2.63637 0.6495,0 1.49714,1.25996 1.88364,2.79991 0.5173,2.06108 1.23788,2.65997 2.73076,2.26957 1.11541,-0.29168 2.02803,-0.14037 2.02803,0.33624 0,1.14534 -2.81835,2.18258 -5.93045,2.18258 -1.63963,0 -2.44914,0.60167 -2.35044,1.74698 0.24661,2.8614 -4.19817,3.88697 -6.38297,1.47279 z m -12.43721,-1.05169 c 0,-0.59622 0.21512,-1.08404 0.47804,-1.08404 0.26293,0 0.77954,0.48782 1.14803,1.08404 0.36848,0.59623 0.15337,1.08404 -0.47805,1.08404 -0.63141,0 -1.14802,-0.48781 -1.14802,-1.08404 z m 2.89079,-1.80674 c -0.39749,-0.39747 -0.7227,-1.22677 -0.7227,-1.84287 0,-0.67926 0.50491,-0.61526 1.28278,0.16261 0.70553,0.70553 1.03075,1.53483 0.7227,1.84287 -0.30806,0.30805 -0.88531,0.23488 -1.28278,-0.16261 z m -5.05887,-1.87142 c 0,-0.83056 -0.76265,-1.80275 -1.69477,-2.16044 -0.93213,-0.35769 -1.37216,-1.17235 -0.97785,-1.81035 0.39431,-0.638 -0.1382,-2.1049 -1.18336,-3.25978 -1.6206,-1.79075 -1.65457,-2.09978 -0.23086,-2.09978 1.87664,0 5.17088,4.46472 5.17088,7.00814 0,0.91531 0.51661,1.6642 1.14802,1.6642 0.63141,0 0.84653,0.48782 0.47804,1.08404 -0.98378,1.5918 -2.7101,1.32041 -2.7101,-0.42603 z m -36.47551,-2.81884 c -2.55954,-1.03271 -4.39353,-3.25938 -2.68458,-3.25938 2.20696,0 6.63881,2.1531 6.63881,3.2253 0,1.30447 -0.78878,1.31127 -3.95423,0.034 z m 17.7149,0.38357 c -0.86607,-0.86608 0.11295,-2.55891 1.47991,-2.55891 0.56103,0 1.02006,0.73173 1.02006,1.62607 0,1.67637 -1.27913,2.15366 -2.49997,0.93284 z m 6.56513,-3.27685 c 0.74528,-0.30072 1.35505,-1.26664 1.35505,-2.14648 0,-0.87984 0.51151,-1.28357 1.13668,-0.89719 1.36978,0.84657 -0.74427,3.80767 -2.62446,3.67603 -0.76804,-0.0538 -0.7187,-0.2888 0.13273,-0.63236 z M 371.89792,395.9861 c 0,-0.59622 0.73173,-1.08404 1.62607,-1.08404 0.89433,0 1.62606,0.48782 1.62606,1.08404 0,0.59623 -0.73173,1.08405 -1.62606,1.08405 -0.89434,0 -1.62607,-0.48782 -1.62607,-1.08405 z M 263.49367,336.42774 c 0,-0.63141 0.48782,-1.14802 1.08404,-1.14802 0.59622,0 1.08404,0.21512 1.08404,0.47804 0,0.26293 -0.48782,0.77954 -1.08404,1.14803 -0.59622,0.36848 -1.08404,0.15337 -1.08404,-0.47805 z"
       id="path3810"
       inkscape:connector-curvature="0"
       mask="url(#mask3842)" />
  </g>
</svg>
