<?xml version="1.0" encoding="UTF-8" standalone="no"?>
<!-- Created with Inkscape (http://www.inkscape.org/) -->

<svg
   width="839.99994"
   height="820.00006"
   viewBox="0 0 222.24998 216.95835"
   version="1.1"
   id="svg1"
   xml:space="preserve"
   inkscape:version="1.3.2 (091e20e, 2023-11-25, custom)"
   sodipodi:docname="xyndel-logo.svg"
   xmlns:inkscape="http://www.inkscape.org/namespaces/inkscape"
   xmlns:sodipodi="http://sodipodi.sourceforge.net/DTD/sodipodi-0.dtd"
   xmlns="http://www.w3.org/2000/svg"
   xmlns:svg="http://www.w3.org/2000/svg"><sodipodi:namedview
     id="namedview1"
     pagecolor="#ffffff"
     bordercolor="#000000"
     borderopacity="0.25"
     inkscape:showpageshadow="2"
     inkscape:pageopacity="0.0"
     inkscape:pagecheckerboard="0"
     inkscape:deskcolor="#d1d1d1"
     inkscape:document-units="px"
     showgrid="true"
     inkscape:zoom="0.77505538"
     inkscape:cx="167.08483"
     inkscape:cy="374.81193"
     inkscape:window-width="1920"
     inkscape:window-height="1009"
     inkscape:window-x="-8"
     inkscape:window-y="-8"
     inkscape:window-maximized="1"
     inkscape:current-layer="layer1"><inkscape:grid
       id="grid1"
       units="px"
       originx="5.2916666"
       originy="42.333339"
       spacingx="0.26458333"
       spacingy="0.26458334"
       empcolor="#0076b1"
       empopacity="0.30196078"
       color="#0099e5"
       opacity="0.14901961"
       empspacing="5"
       dotted="false"
       gridanglex="30"
       gridanglez="30"
       visible="true" /></sodipodi:namedview><defs
     id="defs1" /><g
     inkscape:label="Layer 1"
     inkscape:groupmode="layer"
     id="layer1"
     transform="translate(5.2916666,42.333339)"><path
       style="fill:#ffcc00;stroke-width:0.255;stroke-linecap:square"
       d="M 68.791663,105.83334 42.333333,79.375002 21.166666,52.916669 0,0 -5.2916666,-42.333335 63.499997,26.458333 79.374996,52.916669 89.958331,95.250003 Z"
       id="path6"
       sodipodi:nodetypes="ccccccccc"
       inkscape:export-filename="xyndel-logo-1.svg"
       inkscape:export-xdpi="96"
       inkscape:export-ydpi="96" /><path
       style="fill:#ffcc00;stroke-width:0.255;stroke-linecap:square"
       d="M 142.875,105.83334 169.33333,79.374999 190.5,52.916666 211.66666,-2.8088381e-6 216.95833,-42.333338 148.16667,26.45833 l -15.875,26.458336 -10.58334,42.333337 z"
       id="path7"
       sodipodi:nodetypes="ccccccccc" /><path
       style="fill:#ffcc00;stroke-width:0.255;stroke-linecap:square"
       d="m 63.499997,132.29167 5.291666,-26.45833 26.458333,-15.875003 h 21.166664 l 26.45834,15.875003 5.29166,26.45833 5.29167,5.29167 h -5.29167 L 158.75,148.16667 h -5.29167 v 5.29167 l -17.03728,10.58334 -14.71272,10.58333 h -5.29167 L 105.83333,164.04167 95.249996,174.62501 H 89.95833 L 79.374996,164.04167 58.208333,153.45834 v -5.29167 h -5.291667 l 10.583331,-10.58333 h -5.291664 z"
       id="path3"
       sodipodi:nodetypes="cccccccccccccccccccccccc" /><path
       style="fill:#000000;stroke-width:0.255;stroke-linecap:square"
       d="m 95.249996,142.875 -15.875,-5.29166 L 68.791663,127 79.374996,116.41667 95.249997,127 Z"
       id="path2"
       sodipodi:nodetypes="cccccc" /><path
       style="fill:#aa0000;stroke-width:0.255;stroke-linecap:square"
       d="m 105.83333,164.04167 -10.583334,-15.875 10.583334,-5.29167 10.58333,5.29167 z"
       id="path4" /><path
       style="fill:#000000;stroke-width:0.255;stroke-linecap:square"
       d="m 116.41666,142.87501 15.875,-5.29166 10.58333,-10.58334 -10.58333,-10.58333 -15.875,10.58333 z"
       id="path5"
       sodipodi:nodetypes="cccccc" /><path
       style="fill:#ffe680;stroke-width:0.255;stroke-linecap:square"
       d="M 95.249996,148.16667 105.83333,121.70834 V 142.875 Z"
       id="path8"
       sodipodi:nodetypes="cccc" /><path
       style="fill:#ffe680;stroke-width:0.255;stroke-linecap:square"
       d="m 89.95833,174.62501 5.291666,-26.45834 -15.875,15.875 z"
       id="path9" /><path
       style="fill:#ffe680;stroke-width:0.255;stroke-linecap:square"
       d="m 116.41666,148.16667 v 26.45834 l -10.58333,-10.58334 z"
       id="path10" /><path
       style="fill:#ffe680;stroke-width:0.255;stroke-linecap:square"
       d="m 68.791663,127 2e-6,31.75001 10.583331,-21.16667 z"
       id="path11"
       sodipodi:nodetypes="cccc" /><path
       style="fill:#ffdd55;stroke-width:0.255;stroke-linecap:square"
       d="m 79.374996,137.58334 v 26.45833 l -10.583331,-5.29166 z"
       id="path12"
       sodipodi:nodetypes="cccc" /><path
       style="fill:#1a1a1a;stroke-width:0.255;stroke-linecap:square"
       d="m 79.374996,137.58334 v -15.875 L 95.249996,127 v 15.875 z"
       id="path13" /><path
       style="fill:#1a1a1a;stroke-width:0.255;stroke-linecap:square"
       d="M 116.41666,142.875 127,127 h 5.29166 v 10.58334 z"
       id="path14" /><path
       style="fill:#333333;stroke-width:0.255;stroke-linecap:square"
       d="M 95.249996,142.875 84.666663,132.29167 V 127 Z"
       id="path15"
       sodipodi:nodetypes="cccc" /><path
       style="fill:#800000;stroke-width:0.255;stroke-linecap:square"
       d="M 105.83333,164.04167 V 142.875 l 10.58333,5.29167 z"
       id="path16"
       sodipodi:nodetypes="cccc" /><path
       style="fill:#ffd42a;stroke-width:0.255;stroke-linecap:square"
       d="m 68.791663,127 v -21.16666 l 10.583333,10.58333 z"
       id="path17" /><path
       style="fill:#ffdd55;fill-opacity:1;stroke-width:0.255;stroke-linecap:square"
       d="m 79.374996,116.41667 15.875,-26.458333 10e-7,31.750003 z"
       id="path18"
       sodipodi:nodetypes="cccc" /><path
       style="fill:#ffe680;fill-opacity:1;stroke-width:0.255;stroke-linecap:square"
       d="M 95.249997,121.70834 105.83333,89.958337 H 95.249996 Z"
       id="path19"
       sodipodi:nodetypes="cccc" /><path
       style="fill:#ffdd55;fill-opacity:1;stroke-width:0.255;stroke-linecap:square"
       d="M 95.249997,121.70834 H 105.83333 V 89.958337 Z"
       id="path20"
       sodipodi:nodetypes="cccc" /><path
       style="fill:#ffdd55;fill-opacity:1;stroke-width:0.255;stroke-linecap:square"
       d="m 95.249996,127 10.583334,-5.29166 -10.583334,26.45833 z"
       id="path21"
       sodipodi:nodetypes="cccc" /><path
       style="fill:#ffdd55;fill-opacity:1;stroke-width:0.255;stroke-linecap:square"
       d="m 79.374996,137.58334 15.875,10.58333 V 142.875 Z"
       id="path22" /><path
       style="fill:#e5b700;fill-opacity:1;stroke-width:0.255;stroke-linecap:square"
       d="m 95.249996,174.62501 v -26.45834 l 10.583334,15.875 z"
       id="path23"
       sodipodi:nodetypes="cccc" /><path
       style="fill:#ffe680;fill-opacity:1;stroke-width:0.255;stroke-linecap:square"
       d="m 79.374996,116.41667 15.875,5.29167 V 127 Z"
       id="path27" /><path
       style="fill:#ffe680;fill-opacity:1;stroke-width:0.255;stroke-linecap:square"
       d="M 95.249996,121.70834 V 127 l 10.583334,-5.29166 z"
       id="path28" /><path
       style="fill:#ffe680;fill-opacity:1;stroke-width:0.255;stroke-linecap:square"
       d="M 79.374996,116.41667 68.791663,105.83334 95.249996,89.958337 Z"
       id="path29" /><path
       style="fill:#ffe680;fill-opacity:1;stroke-width:0.255;stroke-linecap:square"
       d="M 63.499997,132.29167 68.791663,127 v -21.16666 z"
       id="path30" /><path
       style="fill:#e5b700;fill-opacity:1;stroke-width:0.255;stroke-linecap:square"
       d="m 58.208333,148.16667 h 10.583332 l -10.583332,5.29167 z"
       id="path31"
       sodipodi:nodetypes="cccc" /><path
       style="fill:#ffcc00;fill-opacity:1;stroke-width:0.255;stroke-linecap:square"
       d="m 79.374996,164.04167 15.875,-15.875 H 84.666663 Z"
       id="path32" /><path
       style="fill:#ffe680;fill-opacity:1;stroke-width:0.255;stroke-linecap:square"
       d="m 79.374996,137.58334 5.291667,10.58333 -5.291667,15.875 z"
       id="path33" /><path
       style="fill:#ffdd55;fill-opacity:1;stroke-width:0.255;stroke-linecap:square"
       d="m 84.666663,148.16667 -5.291667,-10.58333 15.875,10.58333 z"
       id="path34" /><path
       style="fill:#ffeeaa;fill-opacity:1;stroke-width:0.255;stroke-linecap:square"
       d="m 68.791663,127 -5.291666,10.58334 h -5.291664 z"
       id="path35" /><path
       style="fill:#ffdd55;fill-opacity:1;stroke-width:0.255;stroke-linecap:square"
       d="m 63.499997,137.58334 5.291666,10.58333 V 127 Z"
       id="path36" /><path
       style="fill:#ffe680;fill-opacity:1;stroke-width:0.255;stroke-linecap:square"
       d="m 63.499997,137.58334 v 10.58333 H 52.916666 Z"
       id="path37" /><path
       style="fill:#ffd42a;fill-opacity:1;stroke-width:0.255;stroke-linecap:square"
       d="m 63.499997,137.58334 v 10.58333 h 5.291666 z"
       id="path38" /><path
       style="fill:#ffdd55;fill-opacity:1;stroke-width:0.255;stroke-linecap:square"
       d="m 58.208333,153.45834 10.58333,5.29167 v -5.29167 z"
       id="path39" /><path
       style="fill:#d4aa00;fill-opacity:1;stroke-width:0.255;stroke-linecap:square"
       d="m 105.83333,121.70834 10.58333,26.45833 -10.58333,-5.29167 z"
       id="path44" /></g></svg>
